<svg width="1350" height="960" viewBox="0 0 1350 960" fill="none" xmlns="http://www.w3.org/2000/svg">
<mask id="mask0_64_3038" style="mask-type:luminance" maskUnits="userSpaceOnUse" x="-66" y="-30" width="1440" height="1024">
<path d="M1350 -30H-42C-55.2548 -30 -66 -19.2548 -66 -6V970C-66 983.255 -55.2549 994 -42 994H1350C1363.25 994 1374 983.255 1374 970V-6C1374 -19.2548 1363.25 -30 1350 -30Z" fill="white"/>
</mask>
<g mask="url(#mask0_64_3038)">
<path d="M1350 -33.03H-42C-55.2548 -33.03 -66 -22.2849 -66 -9.03003V966.97C-66 980.225 -55.2549 990.97 -42 990.97H1350C1363.25 990.97 1374 980.225 1374 966.97V-9.03003C1374 -22.2849 1363.25 -33.03 1350 -33.03Z" fill="#88A9C3"/>
<g opacity="0.2">
<path d="M-269.87 482.12C-283.34 972.05 125.45 1368.84 613.99 1368.84C1102.53 1368.84 1497.85 972.24 1497.85 482.12" stroke="#B2DFF0" stroke-width="3" stroke-linecap="round" stroke-linejoin="round"/>
<path d="M1417.5 482.12C1417.5 927.68 1058.12 1288.23 613.99 1288.23C169.86 1288.23 -189.52 927.69 -189.52 482.12" stroke="#B2DFF0" stroke-width="3" stroke-linecap="round" stroke-linejoin="round"/>
<path d="M-109.17 482.12C-109.17 883.13 214.27 1207.62 613.99 1207.62C1013.71 1207.62 1337.15 883.13 1337.15 482.12" stroke="#B2DFF0" stroke-width="3" stroke-linecap="round" stroke-linejoin="round"/>
<path d="M1256.8 482.12C1256.8 838.57 969.3 1127.01 613.99 1127.01C258.68 1127.01 -28.8101 838.57 -28.8101 482.12" stroke="#B2DFF0" stroke-width="3" stroke-linecap="round" stroke-linejoin="round"/>
<path d="M51.5399 482.12C51.5399 794.01 303.11 1046.39 614 1046.39C924.89 1046.39 1176.46 794.01 1176.46 482.12" stroke="#B2DFF0" stroke-width="3" stroke-linecap="round" stroke-linejoin="round"/>
<path d="M1096.1 482.12C1096.1 749.46 880.47 965.78 614 965.78C347.53 965.78 131.9 749.45 131.9 482.12" stroke="#B2DFF0" stroke-width="3" stroke-linecap="round" stroke-linejoin="round"/>
<path d="M212.24 482.12C212.24 704.9 391.93 885.17 613.99 885.17C836.05 885.17 1015.74 704.9 1015.74 482.12" stroke="#B2DFF0" stroke-width="3" stroke-linecap="round" stroke-linejoin="round"/>
<path d="M935.39 482.12C935.39 660.35 791.64 804.56 613.99 804.56C436.34 804.56 292.59 660.34 292.59 482.12" stroke="#B2DFF0" stroke-width="3" stroke-linecap="round" stroke-linejoin="round"/>
<path d="M372.94 482.12C372.94 615.79 480.75 723.95 613.99 723.95C747.23 723.95 855.04 615.79 855.04 482.12" stroke="#B2DFF0" stroke-width="3" stroke-linecap="round" stroke-linejoin="round"/>
<path d="M774.69 482.12C774.69 571.23 702.81 643.34 613.99 643.34C525.17 643.34 453.29 571.23 453.29 482.12" stroke="#B2DFF0" stroke-width="3" stroke-linecap="round" stroke-linejoin="round"/>
<path d="M533.64 482.12C533.64 526.68 569.58 562.73 613.99 562.73C658.4 562.73 694.34 526.68 694.34 482.12" stroke="#B2DFF0" stroke-width="3" stroke-linecap="round" stroke-linejoin="round"/>
<path d="M1578.2 482.12C1578.2 -8 1182.73 -392.54 694.34 -404.59C217.83 -416.36 -175.67 -21.54 -189.52 482.12" stroke="#B2DFF0" stroke-width="3" stroke-linecap="round" stroke-linejoin="round"/>
<path d="M-109.17 482.12C-109.17 36.56 250.21 -323.99 694.34 -323.99C1138.47 -323.99 1497.85 36.55 1497.85 482.12" stroke="#B2DFF0" stroke-width="3" stroke-linecap="round" stroke-linejoin="round"/>
<path d="M1417.5 482.12C1417.5 81.11 1094.06 -243.38 694.34 -243.38C294.62 -243.38 -28.8101 81.12 -28.8101 482.12" stroke="#B2DFF0" stroke-width="3" stroke-linecap="round" stroke-linejoin="round"/>
<path d="M51.5399 482.12C51.5399 125.67 339.04 -162.77 694.35 -162.77C1049.66 -162.77 1337.16 125.66 1337.16 482.12" stroke="#B2DFF0" stroke-width="3" stroke-linecap="round" stroke-linejoin="round"/>
<path d="M1256.8 482.12C1256.8 170.23 1005.23 -82.1499 694.34 -82.1499C383.45 -82.1499 131.88 170.23 131.88 482.12" stroke="#B2DFF0" stroke-width="3" stroke-linecap="round" stroke-linejoin="round"/>
<path d="M212.24 482.12C212.24 214.78 427.87 -1.54004 694.34 -1.54004C960.81 -1.54004 1176.44 214.79 1176.44 482.12" stroke="#B2DFF0" stroke-width="3" stroke-linecap="round" stroke-linejoin="round"/>
<path d="M1096.1 482.12C1096.1 259.34 916.41 79.0701 694.35 79.0701C472.29 79.0701 292.6 259.34 292.6 482.12" stroke="#B2DFF0" stroke-width="3" stroke-linecap="round" stroke-linejoin="round"/>
<path d="M372.94 482.12C372.94 303.89 516.69 159.68 694.34 159.68C871.99 159.68 1015.74 303.9 1015.74 482.12" stroke="#B2DFF0" stroke-width="3" stroke-linecap="round" stroke-linejoin="round"/>
<path d="M935.39 482.12C935.39 348.45 827.58 240.29 694.34 240.29C561.1 240.29 453.29 348.45 453.29 482.12" stroke="#B2DFF0" stroke-width="3" stroke-linecap="round" stroke-linejoin="round"/>
<path d="M533.64 482.12C533.64 393.01 605.52 320.9 694.34 320.9C783.16 320.9 855.04 393.01 855.04 482.12" stroke="#B2DFF0" stroke-width="3" stroke-linecap="round" stroke-linejoin="round"/>
<path d="M774.69 482.12C774.69 437.56 738.75 401.51 694.34 401.51C649.93 401.51 613.99 437.56 613.99 482.12" stroke="#B2DFF0" stroke-width="3" stroke-linecap="round" stroke-linejoin="round"/>
</g>
</g>
<path d="M664.97 220.71C678.965 220.71 690.31 209.365 690.31 195.37C690.31 181.375 678.965 170.03 664.97 170.03C650.975 170.03 639.63 181.375 639.63 195.37C639.63 209.365 650.975 220.71 664.97 220.71Z" stroke="white" stroke-width="4" stroke-miterlimit="10"/>
<path d="M588.95 709.91C611.29 709.91 629.4 691.8 629.4 669.46C629.4 647.12 611.29 629.01 588.95 629.01C566.61 629.01 548.5 647.12 548.5 669.46C548.5 691.8 566.61 709.91 588.95 709.91Z" stroke="white" stroke-width="4" stroke-miterlimit="10"/>
<path d="M1170.34 793.69C1180.15 793.69 1188.1 785.739 1188.1 775.93C1188.1 766.121 1180.15 758.17 1170.34 758.17C1160.53 758.17 1152.58 766.121 1152.58 775.93C1152.58 785.739 1160.53 793.69 1170.34 793.69Z" stroke="white" stroke-width="4" stroke-miterlimit="10"/>
<path d="M1130.45 748.9C1152.79 748.9 1170.9 730.79 1170.9 708.45C1170.9 686.11 1152.79 668 1130.45 668C1108.11 668 1090 686.11 1090 708.45C1090 730.79 1108.11 748.9 1130.45 748.9Z" stroke="white" stroke-width="4" stroke-miterlimit="10"/>
<path d="M841.48 903.45C874.683 903.45 901.6 876.533 901.6 843.33C901.6 810.127 874.683 783.21 841.48 783.21C808.277 783.21 781.36 810.127 781.36 843.33C781.36 876.533 808.277 903.45 841.48 903.45Z" stroke="white" stroke-width="4" stroke-miterlimit="10"/>
<path d="M140.18 872.69C173.383 872.69 200.3 845.773 200.3 812.57C200.3 779.366 173.383 752.45 140.18 752.45C106.977 752.45 80.0601 779.366 80.0601 812.57C80.0601 845.773 106.977 872.69 140.18 872.69Z" stroke="white" stroke-width="4" stroke-miterlimit="10"/>
<path d="M212.75 891.04C223.608 891.04 232.41 882.238 232.41 871.38C232.41 860.522 223.608 851.72 212.75 851.72C201.892 851.72 193.09 860.522 193.09 871.38C193.09 882.238 201.892 891.04 212.75 891.04Z" stroke="white" stroke-width="4" stroke-miterlimit="10"/>
<path d="M271.39 394.25C278.862 394.25 284.92 388.192 284.92 380.72C284.92 373.248 278.862 367.19 271.39 367.19C263.917 367.19 257.86 373.248 257.86 380.72C257.86 388.192 263.917 394.25 271.39 394.25Z" stroke="white" stroke-width="4" stroke-miterlimit="10"/>
<path d="M693.47 234.69C698.154 234.69 701.95 230.893 701.95 226.21C701.95 221.527 698.154 217.73 693.47 217.73C688.787 217.73 684.99 221.527 684.99 226.21C684.99 230.893 688.787 234.69 693.47 234.69Z" stroke="white" stroke-width="4" stroke-miterlimit="10"/>
<path d="M906.04 917.31C913.513 917.31 919.57 911.252 919.57 903.78C919.57 896.308 913.513 890.25 906.04 890.25C898.568 890.25 892.51 896.308 892.51 903.78C892.51 911.252 898.568 917.31 906.04 917.31Z" stroke="white" stroke-width="4" stroke-miterlimit="10"/>
<path d="M904.1 57.06C911.572 57.06 917.63 51.0024 917.63 43.53C917.63 36.0576 911.572 30 904.1 30C896.627 30 890.57 36.0576 890.57 43.53C890.57 51.0024 896.627 57.06 904.1 57.06Z" stroke="white" stroke-width="4" stroke-miterlimit="10"/>
<path d="M935.18 127.89C952.533 127.89 966.6 113.823 966.6 96.4698C966.6 79.117 952.533 65.0498 935.18 65.0498C917.828 65.0498 903.76 79.117 903.76 96.4698C903.76 113.823 917.828 127.89 935.18 127.89Z" stroke="white" stroke-width="4" stroke-miterlimit="10"/>
<path d="M219.47 449.84C237.524 449.84 252.16 435.204 252.16 417.15C252.16 399.096 237.524 384.46 219.47 384.46C201.416 384.46 186.78 399.096 186.78 417.15C186.78 435.204 201.416 449.84 219.47 449.84Z" stroke="white" stroke-width="4" stroke-miterlimit="10"/>
<path d="M71.5403 120.95C79.0127 120.95 85.0703 114.893 85.0703 107.42C85.0703 99.9478 79.0127 93.8901 71.5403 93.8901C64.0678 93.8901 58.0103 99.9478 58.0103 107.42C58.0103 114.893 64.0678 120.95 71.5403 120.95Z" stroke="white" stroke-width="4" stroke-miterlimit="10"/>
<path d="M123.47 173.69C141.524 173.69 156.16 159.054 156.16 141C156.16 122.946 141.524 108.31 123.47 108.31C105.416 108.31 90.7803 122.946 90.7803 141C90.7803 159.054 105.416 173.69 123.47 173.69Z" stroke="white" stroke-width="4" stroke-miterlimit="10"/>
<path d="M1151.5 284.93C1162.7 284.93 1171.78 275.85 1171.78 264.65C1171.78 253.449 1162.7 244.37 1151.5 244.37C1140.3 244.37 1131.22 253.449 1131.22 264.65C1131.22 275.85 1140.3 284.93 1151.5 284.93Z" stroke="white" stroke-width="4" stroke-miterlimit="10"/>
</svg>
