<svg width="120" height="121" viewBox="0 0 120 121" fill="none" xmlns="http://www.w3.org/2000/svg">
<g filter="url(#filter0_i_64_3020)">
<path d="M60.1366 0H59.8634C26.8017 0 0 26.8096 0 59.881V60.1543C0 93.2257 26.8017 120.035 59.8634 120.035H60.1366C93.1983 120.035 120 93.2257 120 60.1543V59.881C120 26.8096 93.1983 0 60.1366 0Z" fill="#00E510"/>
<path d="M60.1366 0H59.8634C26.8017 0 0 26.8096 0 59.881V60.1543C0 93.2257 26.8017 120.035 59.8634 120.035H60.1366C93.1983 120.035 120 93.2257 120 60.1543V59.881C120 26.8096 93.1983 0 60.1366 0Z" fill="url(#paint0_radial_64_3020)" fill-opacity="0.2"/>
</g>
<defs>
<filter id="filter0_i_64_3020" x="0" y="0" width="123" height="124.035" filterUnits="userSpaceOnUse" color-interpolation-filters="sRGB">
<feFlood flood-opacity="0" result="BackgroundImageFix"/>
<feBlend mode="normal" in="SourceGraphic" in2="BackgroundImageFix" result="shape"/>
<feColorMatrix in="SourceAlpha" type="matrix" values="0 0 0 0 0 0 0 0 0 0 0 0 0 0 0 0 0 0 127 0" result="hardAlpha"/>
<feOffset dx="3" dy="4"/>
<feGaussianBlur stdDeviation="2"/>
<feComposite in2="hardAlpha" operator="arithmetic" k2="-1" k3="1"/>
<feColorMatrix type="matrix" values="0 0 0 0 1 0 0 0 0 1 0 0 0 0 1 0 0 0 0.5 0"/>
<feBlend mode="normal" in2="shape" result="effect1_innerShadow_64_3020"/>
</filter>
<radialGradient id="paint0_radial_64_3020" cx="0" cy="0" r="1" gradientUnits="userSpaceOnUse" gradientTransform="translate(37 18.5) rotate(57.5877) scale(111.939 111.906)">
<stop offset="0.495" stop-color="white" stop-opacity="0"/>
<stop offset="0.91"/>
</radialGradient>
</defs>
</svg>
