<svg width="294" height="376" viewBox="0 0 294 376" fill="none" xmlns="http://www.w3.org/2000/svg">
<mask id="mask0_64_3165" style="mask-type:alpha" maskUnits="userSpaceOnUse" x="0" y="0" width="294" height="376">
<rect width="294" height="376" rx="24" fill="white"/>
</mask>
<g mask="url(#mask0_64_3165)">
<path opacity="0.3" d="M294 164H218C197.047 164 180 181.009 180 201.917V308.083C180 328.991 197.047 346 218 346H294C314.953 346 332 328.991 332 308.083V201.917C332 181.009 314.953 164 294 164ZM316.8 308.083C316.8 320.626 306.57 330.833 294 330.833H218C205.43 330.833 195.2 320.626 195.2 308.083V201.917C195.2 189.374 205.43 179.167 218 179.167H294C306.57 179.167 316.8 189.374 316.8 201.917V308.083ZM214.2 209.5C207.907 209.5 202.8 204.404 202.8 198.125C202.8 191.846 207.907 186.75 214.2 186.75C220.493 186.75 225.6 191.846 225.6 198.125C225.6 204.404 220.493 209.5 214.2 209.5ZM233.2 198.125C233.2 191.846 238.307 186.75 244.6 186.75C250.893 186.75 256 191.846 256 198.125C256 204.404 250.893 209.5 244.6 209.5C238.307 209.5 233.2 204.404 233.2 198.125ZM256 224.667C230.852 224.667 210.4 245.073 210.4 270.167C210.4 295.26 230.852 315.667 256 315.667C281.148 315.667 301.6 295.26 301.6 270.167C301.6 245.073 281.148 224.667 256 224.667ZM256 239.833C271.656 239.833 284.432 251.747 286.073 266.936C283.991 268.4 280.692 270.167 276.733 270.167C270.356 270.167 262.84 265.746 260.499 264.047C259.23 263.122 247.769 255 235.275 255C233.215 255 231.308 255.265 229.484 255.637C234.659 246.272 244.539 239.833 256 239.833ZM256 300.5C240.344 300.5 227.568 288.587 225.927 273.397C228.009 271.934 231.308 270.167 235.267 270.167C241.644 270.167 249.16 274.588 251.501 276.286C252.77 277.212 264.231 285.333 276.725 285.333C278.785 285.333 280.692 285.068 282.516 284.696C277.341 294.062 267.461 300.5 256 300.5Z" fill="#88A9C3"/>
</g>
</svg>
