<svg width="294" height="376" viewBox="0 0 294 376" fill="none" xmlns="http://www.w3.org/2000/svg">
<mask id="mask0_64_3124" style="mask-type:alpha" maskUnits="userSpaceOnUse" x="0" y="0" width="294" height="376">
<rect width="294" height="376" rx="24" fill="white"/>
</mask>
<g mask="url(#mask0_64_3124)">
<path opacity="0.3" d="M321.618 207.523L295.488 181.378C290.623 176.489 284.837 172.613 278.465 169.974C272.093 167.335 265.261 165.986 258.363 166.003H224.501C214.559 166.015 205.028 169.97 197.998 177C190.968 184.03 187.013 193.561 187.001 203.503V308.503C187.013 318.445 190.968 327.977 197.998 335.007C205.028 342.037 214.559 345.991 224.501 346.003H299.501C309.443 345.991 318.974 342.037 326.004 335.007C333.034 327.977 336.989 318.445 337.001 308.503V244.641C337.02 237.744 335.67 230.912 333.029 224.541C330.389 218.169 326.51 212.385 321.618 207.523ZM311.013 218.128C313.304 220.484 315.273 223.132 316.871 226.003H284.501C282.512 226.003 280.604 225.213 279.198 223.807C277.791 222.4 277.001 220.492 277.001 218.503V186.133C279.873 187.73 282.523 189.697 284.883 191.983L311.013 218.128ZM322.001 308.503C322.001 314.471 319.63 320.194 315.411 324.413C311.191 328.633 305.468 331.003 299.501 331.003H224.501C218.534 331.003 212.811 328.633 208.591 324.413C204.372 320.194 202.001 314.471 202.001 308.503V203.503C202.001 197.536 204.372 191.813 208.591 187.593C212.811 183.374 218.534 181.003 224.501 181.003H258.363C259.593 181.003 260.786 181.243 262.001 181.356V218.503C262.001 224.471 264.372 230.194 268.591 234.413C272.811 238.633 278.534 241.003 284.501 241.003H321.648C321.761 242.218 322.001 243.403 322.001 244.641V308.503Z" fill="#88A9C3"/>
</g>
</svg>
