<svg width="294" height="376" viewBox="0 0 294 376" fill="none" xmlns="http://www.w3.org/2000/svg">
<mask id="mask0_64_3115" style="mask-type:alpha" maskUnits="userSpaceOnUse" x="0" y="0" width="294" height="376">
<rect width="294" height="376" rx="24" fill="white"/>
</mask>
<g mask="url(#mask0_64_3115)">
<g opacity="0.3">
<path d="M323.347 196.578C321.238 194.046 318.597 192.01 315.612 190.614C312.626 189.218 309.37 188.496 306.075 188.5H184.815L184.5 185.868C183.855 180.396 181.225 175.35 177.109 171.689C172.992 168.027 167.675 166.003 162.165 166H160.5C158.511 166 156.603 166.79 155.197 168.197C153.79 169.603 153 171.511 153 173.5C153 175.489 153.79 177.397 155.197 178.803C156.603 180.21 158.511 181 160.5 181H162.165C164.002 181 165.775 181.675 167.148 182.895C168.521 184.116 169.398 185.798 169.612 187.622L179.933 275.372C181.004 284.498 185.389 292.913 192.254 299.02C199.12 305.127 207.989 308.5 217.177 308.5H295.5C297.489 308.5 299.397 307.71 300.803 306.303C302.21 304.897 303 302.989 303 301C303 299.011 302.21 297.103 300.803 295.697C299.397 294.29 297.489 293.5 295.5 293.5H217.177C212.535 293.487 208.011 292.038 204.225 289.353C200.438 286.668 197.575 282.877 196.028 278.5H285.427C294.22 278.501 302.733 275.412 309.479 269.773C316.225 264.135 320.775 256.305 322.335 247.653L328.223 214.998C328.81 211.758 328.678 208.428 327.836 205.245C326.993 202.062 325.461 199.103 323.347 196.578ZM313.5 212.335L307.605 244.99C306.668 250.188 303.934 254.89 299.879 258.274C295.824 261.658 290.709 263.508 285.427 263.5H193.643L186.585 203.5H306.075C307.177 203.493 308.266 203.73 309.267 204.192C310.267 204.654 311.153 205.331 311.861 206.175C312.57 207.018 313.085 208.007 313.368 209.072C313.651 210.137 313.696 211.251 313.5 212.335Z" fill="#88A9C3"/>
<path d="M205.501 346.005C213.785 346.005 220.501 339.289 220.501 331.005C220.501 322.721 213.785 316.005 205.501 316.005C197.217 316.005 190.501 322.721 190.501 331.005C190.501 339.289 197.217 346.005 205.501 346.005Z" fill="#88A9C3"/>
<path d="M280.5 346.005C288.784 346.005 295.5 339.289 295.5 331.005C295.5 322.721 288.784 316.005 280.5 316.005C272.216 316.005 265.5 322.721 265.5 331.005C265.5 339.289 272.216 346.005 280.5 346.005Z" fill="#88A9C3"/>
</g>
</g>
</svg>
