<svg width="294" height="376" viewBox="0 0 294 376" fill="none" xmlns="http://www.w3.org/2000/svg">
<mask id="mask0_64_3172" style="mask-type:alpha" maskUnits="userSpaceOnUse" x="0" y="0" width="294" height="376">
<rect width="294" height="376" rx="24" fill="white"/>
</mask>
<g mask="url(#mask0_64_3172)">
<path opacity="0.3" d="M336.486 166H312.308C299.544 166 287.342 169.967 277.016 177.474L267.131 184.658C263.247 182.386 258.792 180.991 253.985 180.991C249.178 180.991 244.716 182.386 240.839 184.658L230.954 177.474C220.643 169.967 208.441 166 195.677 166H171.499C167.36 166 164 169.352 164 173.499C164 177.647 167.36 180.999 171.499 180.999H195.677C205.247 180.999 214.403 183.969 222.143 189.601L230.534 195.705C228.81 199.192 227.752 203.062 227.752 207.209C209.806 212.564 198.61 231.177 202.232 249.993L210.601 293.482H194.005C189.865 293.482 186.506 296.834 186.506 300.981C186.506 305.128 189.865 308.481 194.005 308.481H213.653C217.058 321.605 228.877 330.979 242.586 330.979H246.501V338.478C246.501 342.625 249.86 345.977 254 345.977C258.14 345.977 261.499 342.625 261.499 338.478V330.979H265.414C279.123 330.979 290.942 321.605 294.347 308.481H313.995C318.135 308.481 321.494 305.128 321.494 300.981C321.494 296.834 318.135 293.482 313.995 293.482H297.399L305.768 249.993C309.39 231.17 298.186 212.549 280.248 207.209C280.248 203.062 279.183 199.192 277.458 195.705L285.857 189.601C293.597 183.969 302.746 180.999 312.323 180.999H336.501C340.64 180.999 344 177.647 344 173.499C344 169.352 340.64 166 336.501 166H336.486ZM265.242 207.247C265.242 213.449 260.194 218.496 253.993 218.496C247.791 218.496 242.743 213.449 242.743 207.247C242.743 201.045 247.791 195.997 253.993 195.997C260.194 195.997 265.242 201.045 265.242 207.247ZM291.032 247.173L280.135 303.824C278.778 310.865 272.591 315.987 265.407 315.987H261.492V270.991C261.492 266.844 258.132 263.492 253.993 263.492C249.853 263.492 246.493 266.844 246.493 270.991V315.987H242.578C235.394 315.987 229.207 310.865 227.85 303.824L216.953 247.173C214.786 235.872 221.393 224.728 232.042 221.555C236.729 228.725 244.806 233.494 253.993 233.494C263.179 233.494 271.249 228.732 275.943 221.555C286.585 224.713 293.207 235.864 291.032 247.173Z" fill="#88A9C3"/>
</g>
</svg>
