<svg width="255" height="254" viewBox="0 0 255 254" fill="none" xmlns="http://www.w3.org/2000/svg">
<path d="M213.563 226.736C165.872 254.366 88.5438 254.366 40.8426 226.736C5.12008 206.035 -3.86136 175.697 13.9542 150.16H240.451C258.267 175.697 249.285 206.035 213.563 226.736Z" fill="#FAFAFA"/>
<path opacity="0.2" d="M12.2929 91.3028C9.68534 98.763 7.72235 106.433 6.4255 114.229L127.131 150.155L12.2929 91.3028ZM113.156 7.19324L127.131 150.155L141.106 7.19324H113.156ZM59.9789 27.432L127.131 150.155L83.9514 14.3713C75.4874 17.7938 67.444 22.1761 59.9789 27.432ZM23.4841 67.188L127.116 150.155L38.5616 46.5378C32.876 52.9144 27.8263 59.8306 23.4841 67.188ZM241.97 91.3028L127.131 150.155L247.832 114.229C246.537 106.433 244.576 98.7632 241.97 91.3028ZM127.131 150.155H249.153C249.492 146.456 249.678 142.716 249.712 138.933L127.131 150.155ZM5.1047 150.155H127.131L4.5459 138.933C4.58654 142.716 4.7728 146.456 5.1047 150.155ZM215.696 46.5226L127.131 150.155L230.763 67.188C226.424 59.8311 221.378 52.915 215.696 46.5378V46.5226ZM170.286 14.3713L127.131 150.155L194.258 27.432C186.793 22.1769 178.749 17.7948 170.286 14.3713Z" fill="#88A9C3"/>
<path d="M127.202 243.063C153.488 243.063 174.797 230.717 174.797 215.489C174.797 200.26 153.488 187.914 127.202 187.914C100.917 187.914 79.6079 200.26 79.6079 215.489C79.6079 230.717 100.917 243.063 127.202 243.063Z" fill="#E6E6E6"/>
<path d="M148.259 197.394C148.056 192.385 150.905 163.434 150.905 163.434L133.958 170.546C135.523 183.159 138.068 192.949 138.16 200.147C138.16 200.147 142.432 204.435 144.814 207.173C146.821 209.561 149.03 211.77 151.418 213.777C153.257 215.245 157.413 216.215 158.21 215.001C155.32 211.648 151.937 207.935 149.828 204.333C148.823 202.692 148.396 200.848 148.259 197.394Z" fill="#FFA8A7"/>
<path d="M163.738 218.918C163.921 218.943 163.773 221.077 162.625 221.808C161.299 222.656 157.662 223.815 153.42 222.529C149.179 221.244 147.101 219.446 145.658 217.627C144.215 215.809 142.204 213.243 140.324 212.471C138.577 211.755 136.768 210.566 136.291 209.875C135.813 209.184 136.433 206.538 136.433 206.538L163.738 218.918Z" fill="#263238"/>
<path d="M138.068 198.12C137.912 198.18 137.777 198.286 137.681 198.423C137.585 198.561 137.532 198.724 137.53 198.892C137.449 199.883 137.784 200.858 137.301 202.519C136.793 204.126 136.473 205.787 136.346 207.467C136.321 208.864 139.12 210.287 140.878 211.354C142.635 212.42 144.606 214.402 146.242 216.459C147.878 218.516 151.896 221.031 154.726 221.539C159.054 222.291 162.112 221.493 163.306 219.984C164.784 218.115 164.175 216.799 159.674 213.573C158.82 212.959 155.915 210.363 154.934 209.433C152.277 206.919 149.808 203.612 149.117 199.781C149.093 199.33 148.913 198.901 148.609 198.567C148.327 198.382 147.991 198.297 147.654 198.323C146.793 198.317 145.936 198.446 145.114 198.704C144.378 198.938 142.945 199.136 142.778 200.04C142.753 200.461 142.784 200.883 142.869 201.295C142.869 201.493 142.94 202.174 142.762 202.26C142.585 202.347 142.285 201.844 142.193 201.686C141.757 200.95 141.645 200.523 140.974 200.259C140.304 199.995 138.495 199.685 138.135 198.872L138.068 198.12Z" fill="#37474F"/>
<path d="M160.38 214.097C154.009 213.558 151.236 217.343 150.448 219.837C151.766 220.633 153.206 221.206 154.71 221.534C159.039 222.286 162.274 221.534 163.468 220.01C164.86 218.247 164.479 216.586 160.38 214.097Z" fill="#FAFAFA"/>
<path d="M150.951 212.674C150.88 212.663 150.815 212.627 150.769 212.573C150.717 212.503 150.693 212.416 150.702 212.329C150.712 212.242 150.753 212.162 150.819 212.105C151.917 211.115 154.736 210.017 156.966 210.642C157.006 210.654 157.043 210.674 157.075 210.701C157.107 210.728 157.133 210.76 157.152 210.797C157.171 210.834 157.182 210.875 157.185 210.916C157.188 210.958 157.183 210.999 157.169 211.039C157.159 211.08 157.14 211.119 157.114 211.153C157.089 211.187 157.056 211.216 157.02 211.237C156.983 211.259 156.942 211.273 156.9 211.279C156.858 211.285 156.814 211.283 156.773 211.272C154.69 210.698 152.084 211.806 151.211 212.593C151.177 212.626 151.136 212.65 151.091 212.664C151.046 212.678 150.998 212.682 150.951 212.674Z" fill="#F0F0F0"/>
<path d="M148.574 210.581C148.504 210.57 148.441 210.534 148.396 210.48C148.342 210.412 148.317 210.326 148.326 210.239C148.334 210.153 148.376 210.074 148.442 210.017C149.539 209.001 152.363 207.919 154.589 208.549C154.629 208.561 154.666 208.581 154.699 208.608C154.731 208.635 154.757 208.669 154.776 208.706C154.795 208.744 154.807 208.785 154.809 208.827C154.812 208.869 154.806 208.911 154.792 208.951C154.769 209.033 154.715 209.104 154.641 209.148C154.567 209.191 154.479 209.205 154.395 209.184C152.313 208.605 149.707 209.692 148.833 210.5C148.799 210.533 148.758 210.558 148.713 210.572C148.668 210.586 148.62 210.59 148.574 210.581Z" fill="#F0F0F0"/>
<path d="M146.445 208.28C146.373 208.269 146.307 208.231 146.262 208.173C146.21 208.104 146.187 208.018 146.196 207.932C146.206 207.846 146.248 207.767 146.313 207.711C147.41 206.721 150.24 205.623 152.46 206.243C152.5 206.256 152.537 206.276 152.569 206.303C152.601 206.33 152.627 206.364 152.646 206.401C152.665 206.438 152.676 206.479 152.679 206.521C152.682 206.563 152.676 206.605 152.663 206.644C152.652 206.686 152.634 206.725 152.608 206.759C152.582 206.793 152.55 206.822 152.513 206.843C152.477 206.865 152.436 206.879 152.394 206.885C152.351 206.891 152.308 206.889 152.267 206.878C150.184 206.304 147.578 207.411 146.704 208.199C146.67 208.231 146.628 208.254 146.584 208.268C146.539 208.282 146.492 208.286 146.445 208.28Z" fill="#F0F0F0"/>
<path d="M144.362 205.994C144.294 205.983 144.233 205.947 144.19 205.892C144.137 205.825 144.111 205.739 144.119 205.653C144.127 205.568 144.166 205.488 144.23 205.43C145.754 204.018 148.68 203.398 150.905 204.013C150.946 204.025 150.983 204.045 151.016 204.072C151.048 204.099 151.074 204.132 151.093 204.17C151.112 204.207 151.123 204.248 151.126 204.29C151.129 204.332 151.123 204.375 151.109 204.414C151.085 204.496 151.031 204.566 150.957 204.61C150.883 204.653 150.796 204.667 150.712 204.648C148.706 204.089 145.978 204.648 144.616 205.908C144.583 205.939 144.542 205.963 144.499 205.978C144.455 205.993 144.408 205.999 144.362 205.994Z" fill="#F0F0F0"/>
<path d="M117.906 173.091L102.432 171.105C101.711 180.797 102.071 189.738 101.111 198.816C100.481 201.519 99.755 213.761 99.9277 217.348C100.187 222.738 106.532 222.865 107.284 219.761C108.035 216.657 110.84 201.635 111.068 200.249C112.572 194.107 117.774 173.579 117.906 173.091Z" fill="#FFA8A7"/>
<path d="M108.782 222.687C108.406 225.786 107.766 227.813 106.506 229.56C105.247 231.308 103.021 231.729 100.842 231.044C98.6629 230.358 95.9196 228.732 95.4523 226.004C94.9849 223.276 95.2237 221.432 95.8993 218.593L108.782 222.687Z" fill="#263238"/>
<path d="M101.111 198.816C100.197 198.816 99.9227 203.708 99.1454 207.858C98.3072 212.303 96.7934 214.066 96.0669 217.709C95.2389 221.869 95.3557 223.764 96.7426 226.406C98.1294 229.047 103.433 231.922 106.344 228.468C108.721 225.649 109.011 222.372 109.067 218.161C109.123 213.807 109.62 210.825 110.006 207.549C110.372 204.414 111.835 200.655 111.068 200.249C110.977 200.706 110.885 201.29 110.794 201.742C110.723 202.082 110.525 203.774 110.017 203.774C109.996 203.377 110.017 202.979 110.078 202.585C110.149 202.235 110.081 201.871 109.89 201.569C109.625 201.298 109.279 201.119 108.904 201.061C108.02 200.828 105.348 200.553 104.429 200.391C103.977 200.32 103.519 200.269 103.067 200.244C102.678 200.21 102.286 200.236 101.904 200.32C101.796 200.346 101.695 200.395 101.607 200.463C101.52 200.531 101.448 200.618 101.396 200.716C101.337 200.866 101.311 201.027 101.32 201.188C101.3 201.48 101.243 201.769 101.152 202.047C101.111 202.164 101.01 202.311 100.883 202.27C100.756 202.23 100.746 202.113 100.751 202.006C100.776 201.498 100.868 201.138 100.929 200.548C100.954 200.279 101.025 199.908 101.045 199.634C101.066 199.36 101.076 199.08 101.111 198.816Z" fill="#37474F"/>
<path d="M95.6656 220.122C95.3507 222.723 95.3964 224.521 96.4835 226.588C97.8703 229.235 103.595 232.141 106.527 228.687C107.974 226.969 108.467 224.856 108.782 222.682C107.339 219.766 98.3529 217.932 95.6656 220.122Z" fill="#FAFAFA"/>
<path d="M106.725 217.932C106.685 217.928 106.647 217.916 106.613 217.897C104.192 216.714 101.48 216.259 98.805 216.586C98.7184 216.599 98.6299 216.579 98.5579 216.529C98.486 216.479 98.4362 216.403 98.4189 216.317C98.411 216.274 98.4119 216.23 98.4216 216.188C98.4313 216.146 98.4496 216.106 98.4753 216.071C98.5011 216.037 98.5337 216.008 98.5712 215.986C98.6087 215.964 98.6502 215.951 98.6933 215.946C101.52 215.586 104.39 216.068 106.943 217.333C106.981 217.353 107.014 217.38 107.041 217.414C107.069 217.447 107.089 217.485 107.101 217.526C107.113 217.567 107.117 217.61 107.113 217.653C107.109 217.696 107.096 217.737 107.075 217.775C107.04 217.834 106.987 217.88 106.925 217.909C106.862 217.937 106.792 217.945 106.725 217.932Z" fill="#F0F0F0"/>
<path d="M99.2168 213.487C99.1543 213.478 99.0956 213.451 99.0479 213.41C99.0002 213.368 98.9654 213.314 98.9476 213.253C98.9361 213.212 98.9332 213.169 98.9388 213.126C98.9445 213.084 98.9586 213.043 98.9804 213.006C99.0022 212.969 99.0312 212.937 99.0657 212.911C99.1002 212.886 99.1395 212.867 99.1812 212.857C103.342 211.816 107.258 214.076 107.421 214.173C107.459 214.193 107.493 214.221 107.519 214.254C107.546 214.288 107.566 214.327 107.577 214.368C107.588 214.41 107.59 214.453 107.583 214.496C107.577 214.538 107.561 214.579 107.538 214.615C107.489 214.688 107.414 214.74 107.328 214.76C107.242 214.78 107.152 214.766 107.076 214.722C107.035 214.722 103.235 212.512 99.3641 213.482C99.3163 213.496 99.2655 213.498 99.2168 213.487Z" fill="#F0F0F0"/>
<path d="M99.633 210.551C99.5708 210.541 99.5123 210.515 99.464 210.475C99.4156 210.434 99.3792 210.382 99.3586 210.322C99.3471 210.281 99.3439 210.238 99.3491 210.195C99.3544 210.152 99.368 210.111 99.3893 210.074C99.4106 210.037 99.439 210.004 99.473 209.978C99.5069 209.951 99.5458 209.932 99.5872 209.921C101.006 209.567 102.481 209.5 103.925 209.724C105.37 209.948 106.755 210.459 108 211.227C108.035 211.25 108.066 211.28 108.09 211.315C108.114 211.35 108.13 211.39 108.138 211.432C108.147 211.473 108.146 211.516 108.137 211.558C108.128 211.6 108.111 211.639 108.086 211.674C108.032 211.745 107.953 211.793 107.865 211.807C107.777 211.821 107.687 211.801 107.614 211.75C105.259 210.332 102.441 209.9 99.7701 210.546C99.7251 210.556 99.6786 210.558 99.633 210.551Z" fill="#F0F0F0"/>
<path d="M100.111 207.264C100.05 207.254 99.9922 207.227 99.9448 207.187C99.8974 207.147 99.8617 207.094 99.8416 207.035C99.8285 206.994 99.8239 206.951 99.8282 206.908C99.8325 206.866 99.8455 206.824 99.8665 206.786C99.8874 206.749 99.9158 206.716 99.95 206.69C99.9842 206.664 100.023 206.645 100.065 206.634C104.363 205.42 108.361 207.924 108.528 208.031C108.565 208.053 108.597 208.083 108.621 208.118C108.646 208.153 108.664 208.192 108.673 208.234C108.682 208.276 108.682 208.319 108.674 208.361C108.666 208.403 108.649 208.443 108.625 208.478C108.6 208.515 108.568 208.546 108.531 208.57C108.494 208.594 108.453 208.61 108.409 208.618C108.366 208.627 108.321 208.626 108.278 208.617C108.235 208.607 108.194 208.59 108.158 208.565C108.117 208.565 104.256 206.126 100.263 207.254C100.214 207.267 100.162 207.271 100.111 207.264Z" fill="#EBEBEB"/>
<path d="M117.042 84.9479C114.187 90.0279 108.223 98.5369 107.471 113.482C106.288 137.023 105.592 149.24 105.592 149.24C104.21 153.701 103.184 154.082 102.371 165.887C101.721 175.311 101.614 187.03 101.614 187.03C101.614 187.03 108.503 190.693 114.162 188.712C116.748 181.173 120.933 164.496 123.844 154.371C126.491 145.181 129.432 130.373 129.432 130.373L133.649 153.035C132.834 157.949 132.69 162.951 133.222 167.904C133.918 174.209 136.356 186.726 136.356 186.726C136.356 186.726 144.032 189.535 148.975 186.218C148.975 186.218 151.464 159.065 151.683 151.445C152.013 140.01 152.308 120.874 151.413 105.166C151.073 99.1617 148.98 88.9865 148.233 84.9326L117.042 84.9479Z" fill="#37474F"/>
<path d="M101.447 184.8C103.641 186.324 111.734 187.98 114.868 186.98L113.644 190.419C113.644 190.419 111.612 191.135 107.37 190.688C103.128 190.241 101.447 188.255 101.447 188.255V184.8Z" fill="#455A64"/>
<path d="M136.006 185.364C138.52 186.38 146.267 186.223 149.148 184.546L148.874 188.483C148.874 188.483 147.522 189.692 142.95 189.952C138.622 190.2 136.61 188.961 136.61 188.961L136.006 185.364Z" fill="#455A64"/>
<path d="M129.407 130.373L132.592 111.887C132.592 111.887 142.57 111.196 146.344 107.904C146.344 107.904 141.482 114.102 134.701 114.818L131.388 130.373L133.603 152.837L129.407 130.373Z" fill="#263238"/>
<path d="M112.384 39.116C112.384 39.116 113.05 44.1351 111.343 48.26C110.235 50.9575 108.381 55.88 106.263 61.2648C104.282 66.3448 101.869 80.3351 118.338 85.1815C127.858 87.9856 141.259 85.2932 145.77 81.7321C157.83 72.2071 155.376 61.2953 141.945 47.3507C138.831 44.1097 137.677 36.9824 137.677 36.9824L112.384 39.116Z" fill="#37474F"/>
<path d="M136.997 53.7109C142.28 53.9243 143.662 53.9599 152.323 57.0282L161.939 60.4521L174.03 66.3449C174.243 67.9807 174.69 71.0134 173.319 73.3248C172.206 75.1993 170.296 74.9301 166.755 74.1173C161.645 72.9438 147.248 69.2964 147.248 69.2964L136.997 53.7109Z" fill="#FFA8A7"/>
<path d="M159.207 59.4614C159.638 65.8825 160.461 67.0814 162.93 69.8348L162.422 60.6552L161.955 60.4266L159.207 59.4614Z" fill="#F28F8F"/>
<path d="M160.223 61.9202C160.268 64.5181 161.05 67.0496 162.478 69.2202C164.203 71.7521 166.755 73.6054 169.697 74.4627C171.556 74.9149 173.974 74.4373 174.208 70.0127C174.487 64.6685 172.232 60.1371 170.174 54.4323C167.375 46.6701 166.618 44.7803 166.187 42.4791C165.912 41.0109 166.085 38.2017 165.465 36.8098C164.767 35.1878 163.862 33.663 162.773 32.2733C161.584 30.6884 160.517 31.7145 160.339 31.9838C159.212 30.9221 157.799 30.9678 157.17 31.9076C156.605 31.8265 156.029 31.927 155.525 32.1945C155.021 32.4621 154.615 32.8828 154.365 33.396C153.517 33.1776 152.293 33.7415 152.333 34.8489C152.441 35.2936 152.644 35.7096 152.928 36.0681C152.857 36.7691 154.289 39.5479 153.822 40.4471C153.354 41.3462 152.267 41.3716 150.891 41.6205C149.428 41.8898 148.061 42.6365 147.741 43.6525C147.492 44.445 147.975 44.7701 148.686 44.7651C149.316 44.7651 150.88 44.4349 152.079 44.4044C153.842 44.3587 154.523 44.2825 155.407 44.6533C156.435 45.0377 157.412 45.5497 158.313 46.1773C158.978 46.731 159.699 47.4727 160.004 49.9721C160.309 52.4714 160.223 59.0754 160.223 61.9202Z" fill="#FFA8A7"/>
<path opacity="0.5" d="M155.681 38.4963C155.452 38.6198 155.189 38.6657 154.932 38.6273C154.674 38.5888 154.436 38.468 154.253 38.283C154.518 38.791 154.706 39.111 154.894 39.3955C155.188 39.8324 155.767 40.2134 156.336 39.6647C156.905 39.1161 156.773 38.603 156.499 37.6937C156.428 37.8782 156.318 38.0453 156.177 38.1838C156.036 38.3223 155.867 38.4288 155.681 38.4963ZM161.111 36.3526C160.924 36.3399 160.744 36.2738 160.593 36.1622C160.442 36.0506 160.325 35.8981 160.258 35.7226C160.258 35.7887 160.258 36.0833 160.283 36.3322C160.283 36.4288 160.283 36.5202 160.283 36.5913C160.283 36.8809 159.714 37.3076 159.43 37.3279C159.145 37.3482 158.653 37.2771 158.292 36.4948C158.295 36.5133 158.295 36.5322 158.292 36.5507C158.307 36.8195 158.239 37.0864 158.097 37.3153C157.955 37.5442 157.747 37.7242 157.5 37.8308C157.336 37.9142 157.152 37.9458 156.97 37.9213C156.788 37.8967 156.619 37.8173 156.484 37.6937C156.643 38.1581 156.882 38.5913 157.19 38.9738C157.698 39.5784 158.409 39.0043 158.577 38.6386C158.587 38.787 158.641 38.9291 158.731 39.0473C158.821 39.1656 158.944 39.2548 159.085 39.304C159.623 39.4971 160.101 39.045 160.228 37.9731C160.228 37.9731 160.228 37.9375 160.228 37.9172C160.537 38.8468 161.421 38.7605 161.691 38.1814C161.955 37.3706 162.126 36.5319 162.199 35.682C162.193 36.0681 161.772 36.383 161.111 36.3526Z" fill="#F28F8F"/>
<path d="M160.486 37.7801V37.8258C160.573 38.1306 160.776 38.3897 161.05 38.3998C161.119 38.4036 161.188 38.3934 161.252 38.3698C161.317 38.3462 161.376 38.3098 161.426 38.2627C161.536 38.1471 161.615 38.0055 161.655 37.8512C161.869 37.1354 162.024 36.403 162.117 35.6617V35.7176V35.6871C162.168 35.2705 162.193 34.8286 162.285 34.4069C162.331 34.1936 162.397 33.9853 162.458 33.7821C162.517 33.5761 162.535 33.36 162.508 33.1471C162.554 33.3597 162.554 33.5797 162.508 33.7923C162.463 34.0056 162.412 34.2088 162.386 34.4222C162.32 34.8438 162.331 35.2705 162.305 35.7074V35.6515V35.6871C162.263 36.4501 162.156 37.2081 161.985 37.9528C161.943 38.1686 161.843 38.3689 161.696 38.5319C161.614 38.6204 161.515 38.6913 161.405 38.7402C161.295 38.7892 161.176 38.8151 161.055 38.8164C160.807 38.8196 160.568 38.7246 160.39 38.5522C160.227 38.3955 160.103 38.2022 160.029 37.9883V38.0341L160.486 37.7801Z" fill="#F28F8F"/>
<path d="M163.27 34.2189C163.194 34.4549 163.068 34.6716 162.899 34.8539C162.734 35.0427 162.548 35.213 162.346 35.3619L162.219 35.1485C162.657 34.9548 163.024 34.63 163.27 34.2189Z" fill="#F28F8F"/>
<path d="M157.174 31.9076C157.36 32.2636 157.514 32.6361 157.632 33.0201C157.753 33.396 157.87 33.777 157.967 34.158L158.129 34.727L158.261 35.3061L158.515 36.4847V36.566L158.719 37.8004L158.81 38.4151C158.821 38.5925 158.87 38.7656 158.952 38.9231C158.993 38.9786 159.045 39.0252 159.104 39.0602C159.164 39.0951 159.229 39.1176 159.298 39.1263C159.363 39.1373 159.43 39.1314 159.492 39.1092C159.554 39.087 159.61 39.0491 159.653 38.9993C159.874 38.7037 160.007 38.3513 160.034 37.9833V37.8969C160.076 37.4223 160.086 36.9454 160.065 36.4694V34.9505C160.065 34.4425 160.065 33.9345 160.09 33.457C160.09 33.203 160.126 32.949 160.151 32.7052C160.164 32.4537 160.229 32.2078 160.344 31.9838C160.267 32.2177 160.238 32.4647 160.258 32.7102C160.258 32.9592 160.258 33.2182 160.258 33.4519L160.359 34.9404L160.466 36.4288L160.502 37.1806C160.515 37.4467 160.507 37.7135 160.476 37.9782V38.0087C160.447 38.4831 160.269 38.9362 159.968 39.3041C159.872 39.412 159.751 39.4945 159.616 39.5442C159.48 39.5938 159.334 39.6091 159.191 39.5886C159.057 39.5668 158.928 39.5202 158.81 39.4514C158.684 39.3775 158.578 39.2747 158.5 39.1517C158.386 38.9418 158.321 38.7093 158.307 38.471L158.221 37.841L158.099 36.5761V36.5355L157.921 35.3823L157.835 34.7981L157.713 34.2139C157.582 33.4345 157.402 32.6642 157.174 31.9076Z" fill="#F28F8F"/>
<path d="M154.38 33.3909C155.205 34.454 155.896 35.6141 156.438 36.8453L156.804 37.78C156.91 38.0796 157.045 38.3687 157.205 38.6436C157.378 38.923 157.545 39.1516 157.835 39.1211C157.991 39.1028 158.141 39.0512 158.275 38.9696C158.409 38.8881 158.524 38.7786 158.612 38.6487C158.554 38.8179 158.457 38.9708 158.328 39.0946C158.199 39.2183 158.042 39.3093 157.87 39.3599C157.67 39.4034 157.46 39.367 157.286 39.2583C157.132 39.1519 156.998 39.0195 156.89 38.8671C156.686 38.5845 156.516 38.2794 156.382 37.9578L156.001 37.0434C155.747 36.4338 155.457 35.8394 155.188 35.2349C154.919 34.6304 154.634 34.036 154.38 33.3909Z" fill="#F28F8F"/>
<path d="M156.463 37.5921L156.509 37.6987C156.655 38.0519 156.746 38.4254 156.778 38.8062C156.781 39.0082 156.737 39.2081 156.649 39.3899C156.56 39.5717 156.431 39.7302 156.27 39.8527C156.105 39.9896 155.895 40.0602 155.681 40.0508C155.469 40.0331 155.268 39.9496 155.107 39.812C154.828 39.5384 154.601 39.2165 154.436 38.8621L153.319 36.9012C153.136 36.571 152.948 36.2459 152.77 35.8852C152.576 35.5596 152.437 35.2043 152.358 34.8336C152.477 35.1952 152.648 35.5375 152.866 35.8496L153.476 36.7996C153.887 37.4295 154.263 38.095 154.639 38.7351C154.796 39.062 155.003 39.3621 155.254 39.6241C155.373 39.7398 155.53 39.809 155.696 39.8193C155.862 39.8295 156.026 39.7801 156.158 39.6799C156.308 39.5833 156.432 39.4521 156.521 39.2974C156.609 39.1426 156.659 38.969 156.666 38.7909C156.661 38.4183 156.608 38.0478 156.509 37.6886L156.463 37.5921Z" fill="#F28F8F"/>
<path d="M159.08 39.0195C159.787 39.4794 160.398 40.073 160.878 40.7671C161.372 41.4313 161.698 42.2051 161.828 43.0226C161.624 42.239 161.231 41.5171 160.685 40.9195C160.172 40.3148 159.545 39.8161 158.841 39.4513L159.08 39.0195Z" fill="#F28F8F"/>
<path d="M164.678 43.81C163.946 44.318 163.001 44.318 162.341 44.7396C161.68 45.1613 160.222 46.1265 158.698 45.4508C157.53 44.9428 155.752 44.4043 154.807 44.4348C155.013 44.4861 155.215 44.5506 155.412 44.6279C156.44 45.0122 157.416 45.5242 158.317 46.1519C158.983 46.7056 159.704 47.4473 160.009 49.9466C160.009 50.0889 160.045 50.2565 160.06 50.4546C160.06 50.4546 160.126 48.4582 160.644 47.4574C161.162 46.4567 162.64 45.8521 164.053 45.019C165.465 44.1859 165.409 43.3172 164.678 43.81Z" fill="#F28F8F"/>
<path d="M127.101 54.2139C123.374 54.7024 119.689 55.4699 116.077 56.51C114.518 57.3177 111.277 58.9941 112.247 68.9814C112.577 72.3799 115.407 77.5717 115.295 83.5255C115.224 87.625 112.755 90.1295 110.312 98.1762C118.246 106.619 146.994 106.746 150.835 99.5935C149.88 88.8493 147.751 88.0873 148.752 77.9629C148.752 77.9629 150.83 73.462 150.479 70.6121C149.971 66.4363 149.011 64.9936 144.932 60.508C142.579 57.9224 139.913 55.6392 136.997 53.7109C133.69 53.6376 130.383 53.8056 127.101 54.2139Z" fill="#88A9C3"/>
<path d="M123.072 51.8668C121.797 50.7797 119.847 50.1092 116.844 47.6708C112.663 44.2824 108.269 33.0404 114.304 30.4801C113.725 21.458 126.44 18.0137 132.125 19.1212C148.681 22.3521 141.843 33.1572 141.843 33.1572L123.072 51.8668Z" fill="#37474F"/>
<path d="M138.135 27.3558C140.212 29.0221 141.34 29.5097 142.138 38.5318C142.758 45.5676 141.325 48.26 138.313 49.9059C137.246 50.4901 135.132 50.9727 133.07 50.9677L133.405 54.2595C133.405 54.2595 137.205 58.6689 137.164 64.323C124.576 59.0093 122.524 55.2857 122.524 55.2857L120.893 44.196C120.543 44.9631 118.511 46.1925 116.555 44.2367C114.254 41.9405 114.33 38.8519 115.961 37.5209C117.591 36.1899 119.887 36.9824 120.949 38.9585C122.951 39.5173 124.256 37.5971 123.235 30.2413C127.284 27.4625 132.958 25.3543 138.135 27.3558Z" fill="#FFA8A7"/>
<path d="M137.799 23.5814C139.023 26.7158 138.541 32.1412 134.106 34.3104C134.868 32.1717 134.37 28.3414 134.37 28.3414C134.37 28.3414 131.855 36.3119 122.457 35.9614L121.025 27.5387C125.211 23.8049 132.013 20.5842 137.799 23.5814Z" fill="#37474F"/>
<path d="M133.07 50.9524C126.908 50.7289 123.418 48.4124 122.524 46.0959C122.524 46.0959 122.976 49.0119 125.099 50.3479C127.675 51.9633 133.227 52.5831 133.227 52.5831L133.07 50.9524Z" fill="#F28F8F"/>
<path d="M135.437 44.4043L131.14 43.3883C131.059 43.6636 131.035 43.9524 131.071 44.2371C131.106 44.5218 131.199 44.7963 131.344 45.0437C131.489 45.2912 131.683 45.5063 131.914 45.6759C132.146 45.8455 132.409 45.966 132.689 46.0299C133.268 46.1607 133.875 46.0652 134.386 45.763C134.897 45.4608 135.273 44.9747 135.437 44.4043Z" fill="#B16668"/>
<path d="M133.644 46.0401C133.329 46.1086 133.003 46.1086 132.689 46.0401C132.301 45.9505 131.947 45.7524 131.668 45.469C131.39 45.1856 131.197 44.8286 131.114 44.4399C131.651 44.4043 132.185 44.5401 132.639 44.8277C133.094 45.1153 133.446 45.5398 133.644 46.0401Z" fill="#F28F8F"/>
<path d="M128.345 36.9419C128.372 37.179 128.469 37.4028 128.624 37.5848C128.778 37.7667 128.983 37.8986 129.213 37.9638C129.442 38.0289 129.686 38.0243 129.913 37.9506C130.14 37.8769 130.34 37.7373 130.488 37.5497C130.635 37.362 130.724 37.1348 130.742 36.8968C130.76 36.6588 130.707 36.4207 130.589 36.213C130.472 36.0052 130.295 35.837 130.082 35.7298C129.869 35.6226 129.629 35.5812 129.392 35.6109C129.077 35.6491 128.79 35.8106 128.593 36.0601C128.397 36.3096 128.308 36.6267 128.345 36.9419Z" fill="#263238"/>
<path d="M137.022 35.9563C137.048 36.1938 137.144 36.4182 137.298 36.6009C137.452 36.7836 137.657 36.9163 137.887 36.9822C138.116 37.0481 138.36 37.0442 138.588 36.9709C138.815 36.8977 139.016 36.7584 139.164 36.5708C139.312 36.3833 139.401 36.1559 139.419 35.9177C139.437 35.6795 139.385 35.4412 139.267 35.2331C139.15 35.025 138.973 34.8566 138.76 34.7493C138.546 34.6419 138.305 34.6006 138.068 34.6304C137.913 34.6487 137.762 34.6975 137.625 34.774C137.488 34.8505 137.368 34.9533 137.27 35.0764C137.173 35.1996 137.101 35.3407 137.059 35.4916C137.016 35.6426 137.004 35.8005 137.022 35.9563Z" fill="#263238"/>
<path d="M133.252 34.8387L134.858 42.7432L138.475 40.7773L133.252 34.8387Z" fill="#F28F8F"/>
<path d="M140.141 33.4264L137.291 32.8168C137.323 32.63 137.393 32.4517 137.495 32.2926C137.598 32.1334 137.732 31.9968 137.89 31.8909C138.047 31.785 138.224 31.7121 138.41 31.6765C138.596 31.641 138.787 31.6435 138.973 31.684C139.353 31.7695 139.687 31.998 139.904 32.3222C140.122 32.6464 140.206 33.0416 140.141 33.4264Z" fill="#263238"/>
<path d="M127.035 34.5695L129.575 33.0861C129.485 32.9173 129.363 32.7682 129.215 32.6475C129.067 32.5268 128.896 32.437 128.713 32.3835C128.53 32.33 128.337 32.3138 128.148 32.3359C127.958 32.358 127.775 32.4179 127.609 32.5121C127.262 32.7114 127.008 33.0386 126.901 33.4234C126.793 33.8082 126.841 34.2198 127.035 34.5695Z" fill="#263238"/>
<path d="M129.062 40.2539C129.118 41.2699 128.046 42.1691 126.634 42.2453C125.221 42.3215 124.058 41.5595 124.002 40.5333C123.946 39.5072 125.018 38.6182 126.43 38.5369C127.843 38.4556 129.006 39.2278 129.062 40.2539Z" fill="#F28F8F"/>
<path d="M144.164 37.5209C144.525 38.481 143.763 39.6596 142.457 40.1574C141.152 40.6553 139.79 40.2844 139.409 39.3243C139.028 38.3642 139.806 37.1856 141.116 36.6878C142.427 36.19 143.799 36.576 144.164 37.5209Z" fill="#F28F8F"/>
<path d="M103.24 113.482C102.57 112.466 101.645 111.557 101.488 110.312C101.436 109.994 101.46 109.667 101.557 109.359C101.654 109.052 101.821 108.771 102.046 108.539C102.158 108.461 102.25 108.359 102.316 108.24C102.349 108.133 102.359 108.02 102.346 107.909C102.301 107.443 102.403 106.974 102.636 106.568C102.747 106.405 102.892 106.267 103.059 106.163C103.227 106.059 103.415 105.991 103.611 105.964C103.5 105.27 103.612 104.558 103.931 103.932C104.317 103.195 105.211 102.697 105.608 103.642C105.791 104.112 105.928 104.598 106.014 105.095C106.239 106.329 106.317 107.586 106.248 108.839C106.187 110.145 105.953 113.833 103.936 113.706C103.779 113.68 103.327 113.624 103.24 113.482Z" fill="#F28F8F"/>
<path d="M117.307 56.2509C110.814 57.2669 108.884 58.3641 104.789 63.7388C100.085 69.911 93.7252 77.2313 91.8405 80.0811C89.5139 83.6066 88.9195 85.0087 92.379 89.6518C94.1824 92.0394 96.7224 94.9554 99.2624 98.1964C101.294 100.736 103.748 103.515 105.673 106.142C105.94 106.434 106.119 106.795 106.189 107.184C106.259 107.573 106.218 107.974 106.07 108.341C105.829 108.821 105.617 109.314 105.435 109.819C105.335 110.502 105.289 111.192 105.297 111.882C105.226 112.568 104.896 113.32 104.231 113.513C103.906 113.596 103.565 113.596 103.24 113.513C103.744 114.031 104.325 114.468 104.962 114.808C105.607 115.152 106.359 115.239 107.065 115.052C107.731 114.844 108.29 114.32 108.986 114.219C109.356 114.168 109.742 114.244 110.118 114.219C110.499 114.171 110.855 114.004 111.134 113.741C111.587 113.32 111.846 112.659 112.425 112.446C112.711 112.381 113.001 112.332 113.293 112.298C113.583 112.211 113.846 112.054 114.061 111.841C114.276 111.629 114.436 111.367 114.528 111.079C114.705 110.504 114.779 109.902 114.746 109.301C114.745 107.682 114.656 106.064 114.477 104.455C114.39 103.907 114.206 103.379 113.933 102.895C113.654 102.326 113.39 101.742 113.075 101.189C110.936 97.4395 104.251 84.9935 104.251 84.9935L115.976 73.1368C115.976 73.1368 122.122 62.6872 117.307 56.2509Z" fill="#FFA8A7"/>
<path d="M104.271 84.9478C101.599 86.8832 97.9518 86.5276 96.6514 86.2482C99.5724 88.7882 104.896 86.0704 104.896 86.0704L104.271 84.9478Z" fill="#F28F8F"/>
<path d="M90.3574 186.944C90.2682 186.96 90.1763 186.941 90.1001 186.892C90.0238 186.843 89.9688 186.768 89.9459 186.68L89.8647 186.345C89.7594 185.923 89.5059 185.553 89.1505 185.303C88.7951 185.053 88.3615 184.94 87.9292 184.983L87.5837 185.019C87.4908 185.035 87.3952 185.013 87.318 184.959C87.2409 184.905 87.1884 184.822 87.1723 184.729C87.1561 184.636 87.1775 184.541 87.2318 184.463C87.2861 184.386 87.3689 184.334 87.4618 184.318L87.7971 184.231C88.2187 184.126 88.5883 183.873 88.8383 183.517C89.0883 183.162 89.202 182.728 89.1585 182.296L89.123 181.95C89.1068 181.857 89.1282 181.762 89.1825 181.685C89.2368 181.608 89.3196 181.555 89.4125 181.539C89.5055 181.523 89.6011 181.544 89.6782 181.599C89.7554 181.653 89.8078 181.736 89.824 181.829L89.9104 182.164C90.0147 182.586 90.2679 182.956 90.6236 183.206C90.9792 183.457 91.4133 183.57 91.8459 183.525L92.1862 183.49C92.2757 183.482 92.3649 183.508 92.4363 183.562C92.5077 183.617 92.5562 183.696 92.5723 183.784C92.5891 183.873 92.571 183.965 92.5218 184.041C92.4726 184.116 92.396 184.17 92.3081 184.191L91.9729 184.277C91.5522 184.383 91.1838 184.637 90.9348 184.993C90.6858 185.348 90.5728 185.781 90.6165 186.213L90.647 186.558C90.6561 186.647 90.6314 186.736 90.5777 186.808C90.524 186.879 90.4454 186.928 90.3574 186.944ZM88.9757 184.404C89.3907 184.557 89.7584 184.817 90.0425 185.156C90.1951 184.739 90.4543 184.369 90.7943 184.084C90.3793 183.931 90.0115 183.671 89.7275 183.332C89.5749 183.749 89.3156 184.119 88.9757 184.404Z" fill="#E0E0E0"/>
<path d="M79.9586 176.037C79.87 176.053 79.7788 176.034 79.7034 175.985C79.628 175.936 79.5739 175.86 79.5522 175.773L79.4658 175.438C79.3606 175.016 79.107 174.647 78.7516 174.397C78.3962 174.147 77.9627 174.033 77.5303 174.076L77.1849 174.112C77.0954 174.12 77.0062 174.094 76.9348 174.039C76.8634 173.985 76.8149 173.906 76.7988 173.817C76.7833 173.729 76.8019 173.638 76.8509 173.562C76.8999 173.487 76.9757 173.433 77.063 173.411L77.3982 173.325C77.8198 173.219 78.1894 172.966 78.4394 172.61C78.6894 172.255 78.8031 171.821 78.7597 171.389L78.7241 171.044C78.7175 170.954 78.7438 170.866 78.7981 170.795C78.8524 170.724 78.9309 170.675 79.0188 170.658C79.1072 170.643 79.1978 170.662 79.2729 170.711C79.3481 170.76 79.4023 170.835 79.4252 170.922L79.5115 171.257C79.6158 171.679 79.8691 172.049 80.2247 172.3C80.5804 172.55 81.0145 172.663 81.447 172.618L81.7924 172.583C81.8817 172.576 81.9703 172.603 82.0414 172.657C82.1126 172.711 82.1614 172.79 82.1785 172.878C82.1928 172.966 82.1737 173.057 82.1249 173.132C82.0761 173.207 82.001 173.261 81.9144 173.284L81.5791 173.37C81.1569 173.475 80.7867 173.728 80.5365 174.084C80.2864 174.439 80.1731 174.873 80.2176 175.306L80.2532 175.651C80.261 175.741 80.2351 175.83 80.1806 175.901C80.1261 175.973 80.0469 176.021 79.9586 176.037ZM78.5768 173.497C78.9937 173.65 79.3632 173.909 79.6487 174.249C79.8013 173.832 80.0605 173.463 80.4005 173.177C79.9837 173.025 79.6141 172.765 79.3286 172.425C79.1776 172.846 78.9182 173.219 78.5768 173.507V173.497Z" fill="#E0E0E0"/>
<path d="M163.779 162.392C163.69 162.405 163.599 162.384 163.525 162.333C163.451 162.282 163.398 162.206 163.377 162.118L163.301 161.778C163.207 161.354 162.963 160.979 162.614 160.721C162.264 160.463 161.834 160.341 161.401 160.376L161.056 160.401C160.966 160.406 160.877 160.378 160.807 160.321C160.737 160.265 160.69 160.185 160.675 160.096C160.662 160.007 160.684 159.917 160.734 159.842C160.785 159.768 160.862 159.716 160.949 159.695L161.29 159.619C161.714 159.523 162.089 159.277 162.347 158.928C162.605 158.578 162.729 158.147 162.697 157.714L162.671 157.373C162.665 157.284 162.692 157.195 162.748 157.125C162.804 157.055 162.884 157.009 162.972 156.995C163.061 156.982 163.151 157.002 163.226 157.053C163.3 157.103 163.352 157.179 163.372 157.267L163.449 157.602C163.543 158.027 163.788 158.403 164.138 158.662C164.488 158.921 164.92 159.044 165.354 159.009L165.699 158.984C165.788 158.979 165.876 159.007 165.946 159.064C166.015 159.12 166.061 159.2 166.075 159.288C166.089 159.378 166.068 159.469 166.017 159.543C165.966 159.618 165.889 159.67 165.801 159.69L165.465 159.766C165.042 159.861 164.667 160.105 164.408 160.454C164.15 160.803 164.026 161.233 164.058 161.666L164.084 162.011C164.091 162.102 164.063 162.192 164.007 162.262C163.95 162.333 163.869 162.38 163.779 162.392ZM162.463 159.827C162.875 159.991 163.237 160.259 163.515 160.604C163.677 160.192 163.945 159.829 164.292 159.553C163.877 159.395 163.513 159.126 163.24 158.775C163.076 159.19 162.804 159.553 162.453 159.827H162.463Z" fill="#E0E0E0"/>
<path d="M172.135 174.803C172.052 174.77 171.984 174.706 171.945 174.625C171.907 174.544 171.9 174.452 171.927 174.366L172.034 174.036C172.164 173.621 172.14 173.173 171.968 172.774C171.795 172.375 171.485 172.051 171.094 171.861L170.784 171.709C170.703 171.669 170.64 171.601 170.608 171.517C170.575 171.434 170.574 171.341 170.606 171.257C170.639 171.174 170.703 171.106 170.784 171.067C170.865 171.028 170.957 171.022 171.043 171.049L171.378 171.15C171.792 171.281 172.239 171.259 172.637 171.087C173.036 170.916 173.359 170.606 173.548 170.216L173.7 169.906C173.74 169.825 173.808 169.762 173.892 169.729C173.975 169.696 174.068 169.696 174.152 169.728C174.235 169.761 174.303 169.824 174.342 169.905C174.381 169.986 174.387 170.079 174.36 170.165L174.259 170.495C174.127 170.909 174.149 171.357 174.321 171.756C174.493 172.155 174.802 172.48 175.193 172.669L175.508 172.822C175.552 172.839 175.591 172.865 175.625 172.897C175.658 172.93 175.685 172.969 175.703 173.012C175.722 173.055 175.731 173.101 175.732 173.147C175.732 173.194 175.724 173.241 175.707 173.284C175.689 173.327 175.663 173.367 175.631 173.4C175.598 173.434 175.559 173.46 175.516 173.479C175.473 173.497 175.427 173.507 175.381 173.507C175.334 173.508 175.288 173.499 175.244 173.482L174.914 173.38C174.5 173.248 174.052 173.269 173.652 173.441C173.253 173.613 172.929 173.923 172.74 174.315L172.587 174.625C172.549 174.706 172.48 174.77 172.396 174.803C172.312 174.836 172.219 174.836 172.135 174.803ZM172.288 171.922C172.559 172.273 172.734 172.688 172.796 173.126C173.142 172.851 173.556 172.675 173.995 172.618C173.722 172.269 173.547 171.854 173.487 171.414C173.14 171.688 172.726 171.864 172.288 171.922Z" fill="#E0E0E0"/>
<path d="M90.3728 165.837C90.2367 165.859 90.0973 165.83 89.9818 165.754C89.8662 165.679 89.7828 165.564 89.748 165.43L89.621 164.922C89.4586 164.277 89.0698 163.711 88.5253 163.327C87.9808 162.944 87.3168 162.769 86.6542 162.834L86.1462 162.89C86.0086 162.903 85.8713 162.863 85.7614 162.779C85.6514 162.696 85.5767 162.574 85.5519 162.438C85.5285 162.302 85.5573 162.162 85.6327 162.046C85.708 161.93 85.8243 161.847 85.9583 161.813L86.4663 161.681C87.1127 161.521 87.6793 161.132 88.062 160.587C88.4447 160.042 88.6177 159.377 88.5491 158.715L88.4983 158.207C88.4863 158.07 88.5262 157.933 88.6099 157.824C88.6937 157.716 88.8152 157.642 88.9505 157.618C89.0858 157.595 89.2251 157.623 89.3408 157.697C89.4564 157.771 89.5401 157.886 89.5752 158.019L89.7022 158.527C89.8648 159.173 90.2545 159.739 90.8002 160.121C91.3459 160.504 92.0111 160.677 92.674 160.609L93.182 160.559C93.3191 160.546 93.4557 160.586 93.5648 160.67C93.674 160.753 93.7477 160.875 93.7713 161.011C93.7958 161.146 93.7673 161.286 93.6917 161.402C93.6161 161.517 93.4991 161.599 93.3649 161.63L92.8569 161.763C92.2105 161.923 91.6438 162.312 91.2612 162.857C90.8785 163.402 90.7055 164.067 90.7741 164.729L90.8249 165.237C90.8386 165.376 90.7997 165.514 90.716 165.625C90.6322 165.736 90.5097 165.812 90.3728 165.837ZM88.2595 161.956C88.8986 162.188 89.4647 162.586 89.9004 163.109C90.1314 162.47 90.5275 161.904 91.0484 161.468C90.4108 161.235 89.8464 160.837 89.4127 160.315C89.1811 160.954 88.783 161.521 88.2595 161.956Z" fill="#E0E0E0"/>
<path d="M161.493 186.985C161.357 186.962 161.234 186.889 161.15 186.779C161.066 186.67 161.027 186.533 161.041 186.395L161.091 185.862C161.154 185.199 160.977 184.535 160.59 183.992C160.204 183.449 159.636 183.063 158.988 182.905L158.48 182.778C158.348 182.743 158.235 182.66 158.161 182.545C158.087 182.43 158.059 182.291 158.082 182.157C158.105 182.022 158.177 181.901 158.285 181.817C158.392 181.733 158.527 181.691 158.663 181.701L159.171 181.752C159.834 181.817 160.498 181.64 161.041 181.254C161.584 180.869 161.97 180.301 162.128 179.654L162.26 179.146C162.284 179.004 162.364 178.877 162.481 178.794C162.599 178.711 162.745 178.677 162.887 178.702C163.029 178.726 163.156 178.806 163.239 178.923C163.323 179.041 163.356 179.187 163.332 179.329L163.286 179.837C163.222 180.5 163.398 181.164 163.784 181.707C164.169 182.25 164.737 182.635 165.384 182.794L165.892 182.921C166.024 182.956 166.138 183.039 166.211 183.154C166.285 183.269 166.313 183.408 166.29 183.542C166.268 183.677 166.195 183.798 166.088 183.882C165.98 183.967 165.845 184.008 165.709 183.998L165.201 183.947C164.539 183.884 163.875 184.061 163.333 184.446C162.79 184.831 162.404 185.399 162.245 186.045L162.113 186.553C162.084 186.691 162.004 186.812 161.889 186.892C161.773 186.973 161.632 187.006 161.493 186.985ZM160.797 182.621C161.322 183.053 161.721 183.618 161.955 184.257C162.387 183.73 162.952 183.329 163.591 183.093C163.067 182.662 162.668 182.099 162.433 181.463C162 181.987 161.435 182.387 160.797 182.621Z" fill="#E0E0E0"/>
<path d="M160.553 91.9074L162.005 93.6549L164.195 93.0707C165.826 92.6389 170.144 91.4908 171.276 87.9399C171.549 87.0804 171.485 86.1495 171.097 85.3355C170.709 84.5214 170.027 83.8851 169.188 83.5552C168.349 83.2254 167.415 83.2266 166.577 83.5587C165.739 83.8908 165.058 84.529 164.672 85.344C164.9 84.4279 164.755 83.4588 164.268 82.65C163.781 81.8411 162.993 81.2588 162.077 81.0311C161.16 80.8034 160.191 80.949 159.382 81.4358C158.574 81.9227 157.991 82.7108 157.764 83.627C156.616 87.1779 159.476 90.6171 160.553 91.9074Z" fill="#88A9C3"/>
<path opacity="0.25" d="M160.553 91.9074L162.005 93.6549L164.195 93.0707C165.826 92.6389 170.144 91.4908 171.276 87.9399C171.549 87.0804 171.485 86.1495 171.097 85.3355C170.709 84.5214 170.027 83.8851 169.188 83.5552C168.349 83.2254 167.415 83.2266 166.577 83.5587C165.739 83.8908 165.058 84.529 164.672 85.344C164.9 84.4279 164.755 83.4588 164.268 82.65C163.781 81.8411 162.993 81.2588 162.077 81.0311C161.16 80.8034 160.191 80.949 159.382 81.4358C158.574 81.9227 157.991 82.7108 157.764 83.627C156.616 87.1779 159.476 90.6171 160.553 91.9074Z" fill="white"/>
<path d="M97.8656 49.403L100.329 50.0177L101.919 48.0467C103.103 46.5786 106.237 42.6873 104.912 38.735C104.592 37.7731 103.918 36.9691 103.027 36.4869C102.135 36.0046 101.094 35.8803 100.114 36.1394C99.1338 36.3984 98.2896 37.0213 97.753 37.8811C97.2163 38.7409 97.0277 39.773 97.2255 40.767C96.7791 39.86 96.0049 39.1563 95.0594 38.7983C94.114 38.4404 93.0679 38.4549 92.1327 38.8389C91.1975 39.2229 90.4431 39.9478 90.022 40.8668C89.601 41.7859 89.5447 42.8306 89.8646 43.7896C91.1904 47.752 96.0418 48.9509 97.8656 49.403Z" fill="#88A9C3"/>
<path opacity="0.35" d="M97.8656 49.403L100.329 50.0177L101.919 48.0467C103.103 46.5786 106.237 42.6873 104.912 38.735C104.592 37.7731 103.918 36.9691 103.027 36.4869C102.135 36.0046 101.094 35.8803 100.114 36.1394C99.1338 36.3984 98.2896 37.0213 97.753 37.8811C97.2163 38.7409 97.0277 39.773 97.2255 40.767C96.7791 39.86 96.0049 39.1563 95.0594 38.7983C94.114 38.4404 93.0679 38.4549 92.1327 38.8389C91.1975 39.2229 90.4431 39.9478 90.022 40.8668C89.601 41.7859 89.5447 42.8306 89.8646 43.7896C91.1904 47.752 96.0418 48.9509 97.8656 49.403Z" fill="white"/>
<path d="M90.9109 63.0835L92.379 62.9565L92.887 61.5748C93.2579 60.5588 94.2485 57.8257 92.7804 55.9106C92.418 55.466 91.9034 55.172 91.3364 55.0858C90.7694 54.9995 90.1906 55.1271 89.7125 55.4437C89.2343 55.7604 88.8909 56.2435 88.7491 56.7992C88.6073 57.3549 88.6771 57.9435 88.945 58.4506C88.5375 58.0018 87.97 57.7311 87.3649 57.6967C86.7597 57.6623 86.1652 57.867 85.7095 58.2668C85.2539 58.6665 84.9734 59.2292 84.9287 59.8337C84.8839 60.4382 85.0784 61.0361 85.4702 61.4986C86.9384 63.4239 89.8238 63.175 90.9109 63.0835Z" fill="#88A9C3"/>
<path d="M56.6517 130.708C52.3235 128.25 46.3698 128.626 39.7962 132.42C26.5882 140.04 15.8491 158.628 15.8491 173.904C15.8491 181.524 18.5263 186.888 22.8544 189.393L31.0383 194.102C35.3665 196.596 41.3507 196.23 47.9547 192.42C61.1627 184.8 71.9069 166.213 71.9069 150.937C71.9069 143.317 69.2399 137.973 64.927 135.463C63.1134 134.412 58.4805 131.745 56.6517 130.708Z" fill="#88A9C3"/>
<path opacity="0.15" d="M16.728 165.964C16.1612 168.573 15.8667 171.234 15.8491 173.904C15.8491 181.524 18.5263 186.888 22.8544 189.393L31.0383 194.102C35.3665 196.596 41.3507 196.23 47.9547 192.42C50.2536 191.073 52.4056 189.49 54.3758 187.696L16.728 165.964Z" fill="black"/>
<path d="M64.8964 174.523C69.2246 167.02 71.9018 158.567 71.9018 150.937C71.9018 135.667 61.1779 129.474 47.9496 137.114C34.7212 144.755 24.0024 163.322 24.0024 178.593C24.0024 193.863 34.7466 200.056 47.9546 192.42C51.4275 190.363 54.5786 187.806 57.3069 184.831L67.0808 186.619C67.3635 186.67 67.6547 186.645 67.9242 186.545C68.1938 186.446 68.4318 186.276 68.6137 186.054C68.7956 185.832 68.9147 185.565 68.9587 185.281C69.0027 184.997 68.97 184.707 68.8639 184.44L64.8964 174.523Z" fill="#88A9C3"/>
<path opacity="0.35" d="M64.8964 174.523C69.2246 167.02 71.9018 158.567 71.9018 150.937C71.9018 135.667 61.1779 129.474 47.9496 137.114C34.7212 144.755 24.0024 163.322 24.0024 178.593C24.0024 193.863 34.7466 200.056 47.9546 192.42C51.4275 190.363 54.5786 187.806 57.3069 184.831L67.0808 186.619C67.3635 186.67 67.6547 186.645 67.9242 186.545C68.1938 186.446 68.4318 186.276 68.6137 186.054C68.7956 185.832 68.9147 185.565 68.9587 185.281C69.0027 184.997 68.97 184.707 68.8639 184.44L64.8964 174.523Z" fill="white"/>
<path d="M59.5576 160.807C60.4492 159.695 60.9618 158.326 61.0206 156.901C61.0206 155.545 60.5126 154.981 60.0046 154.798C60.4725 153.887 60.7261 152.881 60.7463 151.857C60.7463 150.475 59.964 148.875 58.2927 149.825L52.0494 153.421C52.4558 150.597 52.278 148.422 51.4702 146.279C50.7286 144.313 48.8591 144.922 47.8533 145.771C47.5987 145.948 47.3869 146.181 47.2331 146.45C47.0793 146.72 46.9875 147.021 46.9643 147.33C46.9643 147.523 46.9643 147.914 47.0049 148.417C47.0557 149.621 47.1776 152.436 47.0049 153.172C46.8322 153.909 44.9069 158.928 43.6724 162.052C43.6258 162.169 43.6 162.292 43.5962 162.418V179.365C43.5962 179.654 43.7537 179.802 43.9569 179.73L44.028 179.695L55.2498 173.228C56.1011 172.669 56.81 171.918 57.3198 171.036C57.8296 170.154 58.1262 169.165 58.186 168.148C58.1876 167.636 58.133 167.125 58.0234 166.624C59.02 165.466 59.6417 164.033 59.8065 162.514C59.829 161.935 59.7446 161.356 59.5576 160.807ZM57.4596 165.887C57.2906 166.001 57.1638 166.167 57.0989 166.36C57.0178 166.539 57.0052 166.741 57.0633 166.929C57.2413 167.47 57.3272 168.036 57.3173 168.605C57.2626 169.302 57.0474 169.976 56.6887 170.575C56.3301 171.174 55.8375 171.682 55.2498 172.06L44.4497 178.308V162.118C44.9983 160.726 47.4977 154.29 47.8025 153.172C48.0463 152.238 47.9752 150.124 47.8787 147.889C47.8787 147.523 47.8482 147.224 47.8431 147.02C48.168 146.674 48.5833 146.426 49.042 146.304C49.209 146.25 49.3853 146.23 49.5602 146.246C49.7351 146.262 49.9049 146.313 50.0593 146.397C50.2137 146.481 50.3495 146.595 50.4585 146.732C50.5674 146.87 50.6472 147.029 50.693 147.198C51.4956 149.332 51.6226 151.496 51.1096 154.427C51.0859 154.503 51.0805 154.584 51.0938 154.662C51.107 154.741 51.1385 154.815 51.1858 154.879C51.2286 154.926 51.2876 154.955 51.3509 154.959C51.4142 154.964 51.4768 154.944 51.5261 154.905L58.3181 150.998C59.5119 150.312 59.903 151.608 59.903 152.349C59.8782 153.306 59.5668 154.233 59.009 155.011C58.8567 155.212 58.7843 155.461 58.8058 155.712C58.8058 155.926 58.9582 156.042 59.1309 155.997C59.1715 155.997 60.1469 155.758 60.1469 157.394C60.1088 158.504 59.6385 159.556 58.8362 160.325C58.6776 160.473 58.5677 160.666 58.5213 160.879C58.4948 160.963 58.4875 161.053 58.4998 161.141C58.5121 161.228 58.5437 161.312 58.5924 161.387C58.5924 161.387 58.9328 161.773 58.9328 162.977C58.9378 163.693 58.1403 165.522 57.4596 165.908V165.887ZM41.9046 162.331L37.0075 165.146C36.8775 165.232 36.7724 165.351 36.7027 165.491C36.6235 165.64 36.58 165.805 36.5757 165.974V185.699C36.5757 185.984 36.7332 186.136 36.9364 186.06L37.0075 186.03L41.9046 183.21C42.0358 183.125 42.1412 183.006 42.2094 182.865C42.2891 182.716 42.3326 182.551 42.3364 182.382V162.657C42.3364 162.337 42.1484 162.179 41.9046 162.326V162.331ZM39.4459 181.6C38.9379 181.895 38.5213 181.6 38.5213 180.904C38.5272 180.558 38.6139 180.218 38.7744 179.911C38.9349 179.604 39.1648 179.339 39.4459 179.136C39.9539 178.841 40.3704 179.136 40.3704 179.837C40.3638 180.182 40.2767 180.52 40.1162 180.825C39.9557 181.131 39.7262 181.394 39.4459 181.595V181.6Z" fill="#FAFAFA"/>
<path d="M197.754 130.708C202.082 128.25 208.036 128.626 214.609 132.42C227.817 140.04 238.556 158.628 238.556 173.904C238.556 181.524 235.879 186.888 231.551 189.393L223.367 194.102C219.039 196.596 213.055 196.23 206.451 192.42C193.243 184.8 182.499 166.213 182.499 150.937C182.499 143.317 185.166 137.973 189.478 135.463C191.292 134.412 195.925 131.745 197.754 130.708Z" fill="#88A9C3"/>
<path opacity="0.15" d="M237.678 165.964C238.244 168.573 238.539 171.234 238.557 173.904C238.557 181.524 235.879 186.888 231.551 189.393L223.367 194.102C219.039 196.596 213.055 196.23 206.451 192.42C204.152 191.073 202 189.49 200.03 187.696L237.678 165.964Z" fill="black"/>
<path d="M189.509 174.523C185.181 167.02 182.503 158.567 182.503 150.937C182.503 135.667 193.227 129.474 206.456 137.114C219.684 144.755 230.403 163.322 230.403 178.593C230.403 193.863 219.659 200.056 206.451 192.42C202.978 190.363 199.827 187.806 197.098 184.831L187.324 186.619C187.042 186.67 186.75 186.645 186.481 186.545C186.211 186.446 185.973 186.276 185.791 186.054C185.61 185.832 185.49 185.565 185.446 185.281C185.402 184.997 185.435 184.707 185.541 184.44L189.509 174.523Z" fill="#88A9C3"/>
<path opacity="0.35" d="M189.509 174.523C185.181 167.02 182.503 158.567 182.503 150.937C182.503 135.667 193.227 129.474 206.456 137.114C219.684 144.755 230.403 163.322 230.403 178.593C230.403 193.863 219.659 200.056 206.451 192.42C202.978 190.363 199.827 187.806 197.098 184.831L187.324 186.619C187.042 186.67 186.75 186.645 186.481 186.545C186.211 186.446 185.973 186.276 185.791 186.054C185.61 185.832 185.49 185.565 185.446 185.281C185.402 184.997 185.435 184.707 185.541 184.44L189.509 174.523Z" fill="white"/>
<path d="M214.406 185.379C214.158 185.358 213.918 185.281 213.704 185.153C213.49 185.025 213.308 184.851 213.172 184.643L206.181 175.702L199.278 176.555C199.057 176.569 198.836 176.53 198.633 176.441C198.43 176.353 198.25 176.218 198.109 176.047C197.819 175.741 197.597 175.377 197.459 174.978C197.32 174.58 197.268 174.156 197.307 173.736L198.648 164.054L192.907 153.314C192.43 152.415 192.399 151.43 192.877 150.912C193.02 150.757 193.207 150.651 193.412 150.607C193.618 150.563 193.832 150.585 194.025 150.668L201.645 153.589L205.044 146.36C205.126 146.17 205.265 146.01 205.441 145.901C205.617 145.792 205.822 145.739 206.029 145.75C206.73 145.801 207.426 146.522 207.726 147.503L211.256 159.085L219.135 165.181C219.466 165.464 219.731 165.813 219.915 166.206C220.099 166.6 220.197 167.028 220.202 167.462C220.211 167.676 220.17 167.889 220.081 168.084C219.993 168.279 219.861 168.45 219.694 168.585L214.106 172.608L215.437 183.754C215.534 184.526 215.28 185.115 214.767 185.324C214.651 185.365 214.529 185.384 214.406 185.379ZM206.369 174.813C206.435 174.813 206.5 174.828 206.559 174.857C206.618 174.886 206.67 174.928 206.71 174.981L213.852 184.125C214.132 184.475 214.36 184.551 214.457 184.516C214.553 184.48 214.655 184.272 214.604 183.845L213.238 172.451C213.228 172.374 213.24 172.296 213.271 172.226C213.302 172.155 213.352 172.094 213.415 172.049L219.191 167.874C219.244 167.815 219.284 167.745 219.309 167.67C219.333 167.595 219.342 167.516 219.334 167.437C219.327 167.137 219.259 166.841 219.133 166.568C219.008 166.295 218.827 166.051 218.602 165.852L210.616 159.685C210.544 159.629 210.491 159.553 210.464 159.466L206.908 147.752C206.689 147.036 206.227 146.634 205.978 146.614C205.938 146.614 205.892 146.614 205.836 146.731L202.28 154.32C202.233 154.418 202.152 154.495 202.051 154.536C201.95 154.576 201.838 154.577 201.736 154.539L193.746 151.491C193.608 151.44 193.573 151.491 193.553 151.491C193.458 151.722 193.422 151.974 193.448 152.223C193.473 152.472 193.56 152.711 193.7 152.918L199.481 163.769C199.525 163.85 199.543 163.942 199.532 164.033L198.165 173.853C198.146 174.148 198.189 174.443 198.29 174.72C198.392 174.997 198.55 175.251 198.755 175.463C198.809 175.532 198.876 175.59 198.953 175.633C199.03 175.676 199.114 175.703 199.202 175.712L206.344 174.828L206.369 174.813Z" fill="#FAFAFA"/>
</svg>
