<?xml version="1.0" encoding="UTF-8"?>
<svg xmlns="http://www.w3.org/2000/svg" version="1.1" xmlns:xlink="http://www.w3.org/1999/xlink" viewBox="0 0 1440 802">
  <defs>
    <style>
      .cls-1 {
        mask: url(#mask);
      }

      .cls-2 {
        opacity: .2;
      }

      .cls-3 {
        fill: #88a9c3;
      }

      .cls-4 {
        stroke: #fff;
        stroke-miterlimit: 10;
        stroke-width: 4px;
      }

      .cls-4, .cls-5 {
        fill: none;
      }

      .cls-5 {
        stroke: #b2dff0;
        stroke-linecap: round;
        stroke-linejoin: round;
        stroke-width: 3px;
      }
    </style>
    <mask id="mask" x="-522.5" y="-348.5" width="1962.5" height="1651.4" maskUnits="userSpaceOnUse">
      <g id="mask0_64_3184">
        <rect class="cls-3" width="1440" height="802"/>
      </g>
    </mask>
  </defs>
  <!-- Generator: Adobe Illustrator 28.7.1, SVG Export Plug-In . SVG Version: 1.2.0 Build 142)  -->
  <g>
    <g id="Layer_2">
      <rect class="cls-3" x="0" width="1440" height="802"/>
    </g>
    <g id="Layer_1">
      <g class="cls-1">
        <g>
          <g class="cls-2">
            <path class="cls-5" d="M-520.7,477.3c-12.5,455.3,367.4,824.1,821.4,824.1s821.4-368.6,821.4-824.1"/>
            <path class="cls-5" d="M1047.4,477.3c0,414.1-334,749.1-746.7,749.1S-446,891.4-446,477.3"/>
            <path class="cls-5" d="M-371.4,477.3c0,372.7,300.6,674.2,672.1,674.2s672.1-301.6,672.1-674.2"/>
            <path class="cls-5" d="M898.1,477.3c0,331.3-267.2,599.3-597.4,599.3S-296.7,808.6-296.7,477.3"/>
            <path class="cls-5" d="M-222,477.3c0,289.9,233.8,524.4,522.7,524.4s522.7-234.5,522.7-524.4"/>
            <path class="cls-5" d="M748.8,477.3c0,248.5-200.4,449.5-448,449.5s-448-201-448-449.5"/>
            <path class="cls-5" d="M-72.7,477.3c0,207,167,374.6,373.4,374.6s373.4-167.5,373.4-374.6"/>
            <path class="cls-5" d="M599.4,477.3c0,165.6-133.6,299.7-298.7,299.7S2,642.9,2,477.3"/>
            <path class="cls-5" d="M76.7,477.3c0,124.2,100.2,224.7,224,224.7s224-100.5,224-224.7"/>
            <path class="cls-5" d="M450.1,477.3c0,82.8-66.8,149.8-149.3,149.8s-149.3-67-149.3-149.8"/>
            <path class="cls-5" d="M226,477.3c0,41.4,33.4,74.9,74.7,74.9s74.7-33.5,74.7-74.9"/>
            <path class="cls-5" d="M1196.8,477.3c0-455.5-367.5-812.9-821.4-824.1C-67.5-357.7-433.2,9.2-446,477.3"/>
            <path class="cls-5" d="M-371.4,477.3c0-414.1,334-749.2,746.7-749.2S1122.1,63.2,1122.1,477.3"/>
            <path class="cls-5" d="M1047.4,477.3c0-372.7-300.6-674.2-672.1-674.2S-296.7,104.6-296.7,477.3"/>
            <path class="cls-5" d="M-222,477.3C-222,146,45.2-122,375.4-122S972.8,146,972.8,477.3"/>
            <path class="cls-5" d="M898.1,477.3c0-289.9-233.8-524.4-522.7-524.4S-147.3,187.4-147.3,477.3"/>
            <path class="cls-5" d="M-72.7,477.3C-72.7,228.8,127.7,27.8,375.4,27.8s448,201,448,449.5"/>
            <path class="cls-5" d="M748.8,477.3c0-207-167-374.6-373.4-374.6S2,270.3,2,477.3"/>
            <path class="cls-5" d="M76.7,477.3c0-165.6,133.6-299.7,298.7-299.7s298.7,134,298.7,299.7"/>
            <path class="cls-5" d="M599.4,477.3c0-124.2-100.2-224.7-224-224.7s-224,100.5-224,224.7"/>
            <path class="cls-5" d="M226,477.3c0-82.8,66.8-149.8,149.3-149.8s149.3,67,149.3,149.8"/>
            <path class="cls-5" d="M450.1,477.3c0-41.4-33.4-74.9-74.7-74.9s-74.7,33.5-74.7,74.9"/>
          </g>
          <path class="cls-4" d="M1149,266.2c16,3.5,31.8-6.7,35.2-22.7,3.5-16-6.7-31.8-22.7-35.2-16-3.5-31.8,6.7-35.2,22.7s6.7,31.8,22.7,35.2Z"/>
          <path class="cls-4" d="M280.2,740.5c25.5,5.5,50.7-10.7,56.3-36.2,5.5-25.5-10.7-50.7-36.2-56.3-25.5-5.5-50.7,10.7-56.3,36.2-5.5,25.5,10.7,50.7,36.2,56.3Z"/>
          <path class="cls-4" d="M1220.3,781.7c11.2,2.4,22.3-4.7,24.7-15.9,2.4-11.2-4.7-22.3-15.9-24.7-11.2-2.4-22.3,4.7-24.7,15.9-2.4,11.2,4.7,22.3,15.9,24.7Z"/>
          <path class="cls-4" d="M1185.8,720.6c25.5,5.5,50.7-10.7,56.3-36.2,5.5-25.5-10.7-50.7-36.2-56.3-25.5-5.5-50.7,10.7-56.3,36.2-5.5,25.5,10.7,50.7,36.2,56.3Z"/>
          <path class="cls-4" d="M817.2,825.7c38,8.2,75.4-15.9,83.6-53.8s-15.9-75.4-53.8-83.6c-38-8.2-75.4,15.9-83.6,53.8s15.9,75.4,53.8,83.6Z"/>
          <path class="cls-4" d="M23,616.8c38,8.2,75.4-15.9,83.6-53.8,8.2-38-15.9-75.4-53.8-83.6-38-8.2-75.4,15.9-83.6,53.8-8.2,38,15.9,75.4,53.8,83.6Z"/>
          <path class="cls-4" d="M101.4,655.7c12.4,2.7,24.7-5.2,27.3-17.6,2.7-12.4-5.2-24.7-17.6-27.3-12.4-2.7-24.7,5.2-27.3,17.6-2.7,12.4,5.2,24.7,17.6,27.3Z"/>
          <path class="cls-4" d="M291.5,102.3c8.5,1.9,17-3.6,18.8-12.1,1.9-8.5-3.6-17-12.1-18.8-8.5-1.9-17,3.6-18.8,12.1-1.9,8.5,3.6,17,12.1,18.8Z"/>
          <path class="cls-4" d="M1178.1,289.3c5.4,1.2,10.6-2.2,11.8-7.6,1.2-5.4-2.2-10.6-7.6-11.8-5.4-1.2-10.6,2.2-11.8,7.6s2.2,10.6,7.6,11.8Z"/>
          <path class="cls-4" d="M218.4,153c20.6,4.5,41-8.6,45.5-29.3,4.5-20.6-8.6-41-29.3-45.5-20.6-4.5-41,8.6-45.5,29.3-4.5,20.6,8.6,41,29.3,45.5Z"/>
          <path class="cls-4" d="M1324.8,195.4c12.8,2.8,25.4-5.4,28.2-18.2,2.8-12.8-5.4-25.4-18.2-28.2-12.8-2.8-25.4,5.4-28.2,18.2-2.8,12.8,5.4,25.4,18.2,28.2Z"/>
        </g>
      </g>
    </g>
  </g>
</svg>