<svg width="680" height="136" viewBox="0 0 680 136" fill="none" xmlns="http://www.w3.org/2000/svg">
<path d="M67.907 103.644C50.6541 93.6827 44.7609 71.5676 54.7633 54.2429C64.7657 36.9183 86.8646 30.9644 104.117 40.9253C121.37 50.8862 127.263 73.0014 117.261 90.326C107.259 107.651 85.1598 113.605 67.907 103.644Z" stroke="#B2C7E5" stroke-width="4"/>
<circle cx="39.3988" cy="24.3989" r="10.7368" transform="rotate(120 39.3988 24.3989)" stroke="#B2C7E5" stroke-width="4"/>
<circle cx="6.36841" cy="6.36841" r="4.36841" transform="matrix(-0.5 0.866025 0.866025 0.5 123.368 102)" stroke="#B2C7E5" stroke-width="4"/>
<path d="M653.884 57.8528C656.27 74.8239 644.4 90.5338 627.356 92.93C610.312 95.3261 594.571 83.4979 592.185 66.5268C589.799 49.5557 601.669 33.8457 618.713 31.4496C635.757 29.0534 651.498 40.8816 653.884 57.8528Z" stroke="#B2C7E5" stroke-width="4"/>
<circle cx="666.805" cy="92.5284" r="9.051" transform="rotate(-8.00256 666.805 92.5284)" stroke="#B2C7E5" stroke-width="4"/>
<circle cx="5.5255" cy="5.5255" r="3.5255" transform="matrix(0.990262 -0.139217 -0.139217 -0.990262 664.436 75.6756)" stroke="#B2C7E5" stroke-width="4"/>
</svg>
