<?xml version="1.0" encoding="UTF-8"?>
<svg xmlns="http://www.w3.org/2000/svg" version="1.1" viewBox="0 0 51 51">
  <defs>
    <style>
      .cls-1 {
        fill: #fff;
      }

      .cls-2 {
        fill: none;
      }
    </style>
  </defs>
  <!-- Generator: Adobe Illustrator 28.7.1, SVG Export Plug-In . SVG Version: 1.2.0 Build 142)  -->
  <g>
    <g id="Layer_1">
      <path class="cls-1" d="M35.5,19.1h-2.9c-1.6,0-3,.5-4.3,1.4l-1.2.9c-.5-.3-1-.4-1.6-.4s-1.1.2-1.6.4l-1.2-.9c-1.3-.9-2.7-1.4-4.3-1.4h-2.9c-.5,0-.9.4-.9.9s.4.9.9.9h2.9c1.2,0,2.3.4,3.2,1l1,.7c-.2.4-.3.9-.3,1.4-2.2.7-3.5,2.9-3.1,5.2l1,5.3h-2c-.5,0-.9.4-.9.9s.4.9.9.9h2.4c.4,1.6,1.8,2.7,3.5,2.7h.5v.9c0,.5.4.9.9.9s.9-.4.9-.9v-.9h.5c1.7,0,3.1-1.1,3.5-2.7h2.4c.5,0,.9-.4.9-.9s-.4-.9-.9-.9h-2l1-5.3c.4-2.3-.9-4.5-3.1-5.2,0-.5-.1-1-.3-1.4l1-.7c.9-.7,2.1-1,3.2-1h2.9c.5,0,.9-.4.9-.9s-.4-.9-.9-.9h0ZM26.9,24.1c0,.8-.6,1.4-1.4,1.4s-1.4-.6-1.4-1.4.6-1.4,1.4-1.4,1.4.6,1.4,1.4ZM30,29l-1.3,6.9c-.2.9-.9,1.5-1.8,1.5h-.5v-5.5c0-.5-.4-.9-.9-.9s-.9.4-.9.9v5.5h-.5c-.9,0-1.6-.6-1.8-1.5l-1.3-6.9c-.3-1.4.5-2.7,1.8-3.1.6.9,1.5,1.4,2.7,1.4s2.1-.6,2.7-1.4c1.3.4,2.1,1.7,1.8,3.1Z"/>
      <rect class="cls-2" width="51" height="51"/>
      <path class="cls-1" d="M44.8,2.4c-3-1.6-6.1-2.4-9.3-2.4H15.5c-3.2,0-6.3.8-9.3,2.4C2.4,4.5,0,8.5,0,13v24.1C0,41.3,3.3,44.6,7.4,44.6h1.6c1.3,3.7,4.9,6.4,9,6.4h14.9c4.2,0,7.7-2.7,9-6.4h1.6c4.1,0,7.4-3.3,7.4-7.4V13c0-4.5-2.4-8.6-6.2-10.6ZM32.9,2.1c-.5,3.6-3.6,6.4-7.4,6.4s-6.8-2.8-7.4-6.4h14.7ZM48.9,37.1c0,2.9-2.4,5.3-5.3,5.3h-1.1c0-.3,0-.7,0-1V15.9c0-.6-.5-1.1-1.1-1.1s-1.1.5-1.1,1.1v25.5c0,4.1-3.3,7.4-7.4,7.4h-14.9c-4.1,0-7.4-3.3-7.4-7.4V15.9c0-.6-.5-1.1-1.1-1.1s-1.1.5-1.1,1.1v25.5c0,.4,0,.7,0,1.1h-1.1c-2.9,0-5.3-2.4-5.3-5.3V13c0-3.7,1.9-7.1,5.1-8.8,2.7-1.4,5.5-2.2,8.3-2.2h.5c.5,4.8,4.6,8.5,9.5,8.5s9-3.7,9.5-8.5h.5c2.8,0,5.6.7,8.3,2.2,3.1,1.7,5.1,5,5.1,8.8,0,0,0,24.1,0,24.1Z"/>
    </g>
  </g>
</svg>