<?xml version="1.0" encoding="UTF-8"?>
<svg xmlns="http://www.w3.org/2000/svg" version="1.1" viewBox="0 0 51 51">
  <defs>
    <style>
      .cls-1 {
        fill: none;
      }

      .cls-2 {
        fill: #88a9c3;
      }
    </style>
  </defs>
  <!-- Generator: Adobe Illustrator 28.7.1, SVG Export Plug-In . SVG Version: 1.2.0 Build 142)  -->
  <g>
    <g id="Layer_1">
      <rect class="cls-1" width="51" height="51"/>
      <path class="cls-2" d="M24.4,30.1c-.5,0-.8-.2-.9-.6-.2-1-.6-1.9-1.2-2.6-.5-.7-1.3-1.3-2.3-1.9l-1.5,1.2v3c0,.2,0,.4-.2.5-.1.1-.3.2-.6.2s-.4,0-.6-.2c-.1-.1-.2-.3-.2-.5v-8.6c0-.2,0-.4.2-.5.1-.1.3-.2.6-.2s.4,0,.6.2c.1.1.2.3.2.5v3.8l5-4.3c.1-.1.3-.2.5-.2s.4,0,.5.2c.1.1.2.3.2.5s0,.4-.3.5l-3.4,3c1.1.6,2.1,1.3,2.7,2.2.7.9,1.1,1.9,1.2,2.9,0,.2,0,.4-.2.5-.1.2-.3.2-.5.3ZM30.8,30.1c-1,0-1.9-.2-2.7-.6-.8-.4-1.3-1-1.8-1.8-.4-.8-.6-1.6-.6-2.7s.2-1.9.6-2.7c.4-.8,1-1.4,1.8-1.8.8-.4,1.7-.6,2.7-.6s1.6.1,2.3.4c.7.3,1.3.7,1.6,1.2,0,.1.1.3.1.4,0,.2-.1.4-.3.5-.1,0-.2.1-.4.1s-.2,0-.4,0c-.1,0-.2-.1-.3-.2-.3-.4-.7-.6-1.1-.8-.4-.2-1-.3-1.6-.3-1.1,0-1.9.3-2.5,1-.6.7-.9,1.6-.9,2.8s.3,2.1.9,2.8c.6.7,1.5,1,2.5,1s1.6-.2,2.1-.5c.5-.4.8-.9.8-1.5v-.4c0-.2,0-.4-.1-.4,0,0-.2-.1-.5-.1h-1.9c-.2,0-.4,0-.5-.2-.1-.1-.2-.3-.2-.5s0-.4.2-.5c.1-.1.3-.2.5-.2h2.6c.5,0,.9.1,1.2.4.3.2.4.6.4,1.1v.5c0,.7-.2,1.3-.6,1.8-.4.5-.9,1-1.6,1.3-.7.3-1.5.4-2.3.4Z"/>
      <path class="cls-2" d="M44.8,2.4c-3-1.6-6.1-2.4-9.3-2.4H15.5c-3.2,0-6.3.8-9.3,2.4C2.4,4.5,0,8.5,0,13v24.1c0,4.1,3.3,7.4,7.4,7.4h1.6c1.3,3.7,4.9,6.4,9,6.4h14.9c4.2,0,7.7-2.7,9-6.4h1.6c4.1,0,7.4-3.3,7.4-7.4V13c0-4.5-2.4-8.6-6.2-10.6ZM32.9,2.1c-.5,3.6-3.6,6.4-7.4,6.4s-6.8-2.8-7.4-6.4h14.7ZM48.9,37.1c0,2.9-2.4,5.3-5.3,5.3h-1.1c0-.3,0-.7,0-1V15.9c0-.6-.5-1.1-1.1-1.1s-1.1.5-1.1,1.1v25.5c0,4.1-3.3,7.4-7.4,7.4h-14.9c-4.1,0-7.4-3.3-7.4-7.4V15.9c0-.6-.5-1.1-1.1-1.1s-1.1.5-1.1,1.1v25.5c0,.4,0,.7,0,1.1h-1.1c-2.9,0-5.3-2.4-5.3-5.3V13c0-3.7,1.9-7.1,5.1-8.8,2.7-1.4,5.5-2.2,8.3-2.2h.5c.5,4.8,4.6,8.5,9.5,8.5s9-3.7,9.5-8.5h.5c2.8,0,5.6.7,8.3,2.2,3.1,1.7,5.1,5,5.1,8.8,0,0,0,24.1,0,24.1Z"/>
    </g>
  </g>
</svg>