<?xml version="1.0" encoding="UTF-8"?>
<svg xmlns="http://www.w3.org/2000/svg" version="1.1" viewBox="0 0 51 51">
  <defs>
    <style>
      .cls-1 {
        fill: none;
      }

      .cls-2 {
        fill: #88a9c3;
      }
    </style>
  </defs>
  <!-- Generator: Adobe Illustrator 28.7.1, SVG Export Plug-In . SVG Version: 1.2.0 Build 142)  -->
  <g>
    <g id="Layer_1">
      <path class="cls-2" d="M32,28.8c0-.3-.2-.7-.5-.8-.8-.4-1.6-.8-2.6-1.1-1.6-.6-2.7-1.7-3.3-3.3-.4-1-.7-1.8-1.1-2.6-.2-.3-.5-.5-.8-.5s-.7.2-.8.5c-.4.8-.8,1.6-1.1,2.6-.6,1.6-1.7,2.7-3.3,3.3-.9.4-1.8.7-2.6,1.1-.3.2-.5.5-.5.8s.2.7.5.8c.8.4,1.6.8,2.6,1.1,1.6.6,2.7,1.7,3.3,3.3.4,1,.7,1.8,1.1,2.6.2.3.5.5.8.5s.7-.2.8-.5c.4-.8.8-1.6,1.1-2.6.6-1.6,1.7-2.7,3.3-3.3.9-.4,1.8-.7,2.6-1.1.3-.2.5-.5.5-.8ZM28.3,29c-2,.8-3.6,2.3-4.3,4.4,0,.2-.1.4-.2.6,0-.2-.1-.4-.2-.6-.8-2.1-2.3-3.6-4.3-4.4-.2,0-.4-.2-.6-.2.2,0,.4-.2.6-.2,2-.8,3.6-2.3,4.3-4.4,0-.2.1-.4.2-.6,0,.2.1.4.2.6.8,2.1,2.3,3.6,4.3,4.4.2,0,.4.2.6.2-.2,0-.4.2-.6.2Z"/>
      <path class="cls-2" d="M30.1,24.2c.2.1.5.2.7.3.2,0,.3.2.4.4,0,.2.2.5.3.7.2.3.5.5.8.5h0c.3,0,.7-.2.8-.5.1-.2.2-.5.3-.7,0-.2.2-.3.4-.4.2,0,.5-.2.7-.3.3-.2.5-.5.5-.8s-.2-.7-.5-.8c-.2-.1-.5-.2-.7-.3-.2,0-.3-.2-.4-.4,0-.2-.2-.5-.3-.7-.2-.3-.5-.5-.8-.5h0c-.3,0-.7.2-.8.5-.1.2-.2.5-.3.7,0,.2-.2.3-.4.4-.2,0-.5.2-.7.3-.3.2-.5.5-.5.8s.2.7.5.8h0Z"/>
      <path class="cls-2" d="M35,33.9c-.3-.1-.6-.3-.9-.4-.3-.1-.5-.3-.6-.7-.1-.3-.2-.6-.4-.9-.2-.3-.5-.5-.8-.5s-.7.2-.8.5c-.1.3-.3.6-.4.9-.1.3-.3.5-.6.7-.3.1-.6.2-.9.4-.3.2-.5.5-.5.8s.2.7.5.8c.3.1.6.3.9.4.3.1.5.3.6.7.1.3.2.6.4.9.2.3.5.5.8.5.3,0,.7-.2.8-.5.1-.3.3-.6.4-.9.1-.3.3-.5.6-.7.3-.1.6-.2.9-.4.3-.2.5-.5.5-.8s-.2-.7-.5-.8h0Z"/>
      <rect class="cls-1" width="51" height="51"/>
      <path class="cls-2" d="M44.8,2.4C41.8.8,38.7,0,35.5,0H15.5C12.3,0,9.2.8,6.2,2.4,2.4,4.5,0,8.5,0,13v24.1c0,4.1,3.3,7.4,7.4,7.4h1.6c1.3,3.7,4.9,6.4,9,6.4h14.9c4.2,0,7.7-2.7,9-6.4h1.6c4.1,0,7.4-3.3,7.4-7.4V13c0-4.5-2.4-8.6-6.2-10.6ZM32.9,2.1c-.5,3.6-3.6,6.4-7.4,6.4s-6.8-2.8-7.4-6.4h14.7ZM48.9,37.1c0,2.9-2.4,5.3-5.3,5.3h-1.1c0-.3,0-.7,0-1V15.9c0-.6-.5-1.1-1.1-1.1s-1.1.5-1.1,1.1v25.5c0,4.1-3.3,7.4-7.4,7.4h-14.9c-4.1,0-7.4-3.3-7.4-7.4V15.9c0-.6-.5-1.1-1.1-1.1s-1.1.5-1.1,1.1v25.5c0,.4,0,.7,0,1.1h-1.1c-2.9,0-5.3-2.4-5.3-5.3V13c0-3.7,1.9-7.1,5.1-8.8,2.7-1.4,5.5-2.2,8.3-2.2h.5c.5,4.8,4.6,8.5,9.5,8.5s9-3.7,9.5-8.5h.5c2.8,0,5.6.7,8.3,2.2,3.1,1.7,5.1,5,5.1,8.8,0,0,0,24.1,0,24.1Z"/>
    </g>
  </g>
</svg>